<svg xmlns="http://www.w3.org/2000/svg" width="14" height="14" viewBox="0 0 14 14">
  <g id="그룹_2815" data-name="그룹 2815" transform="translate(-212 -227)">
    <circle id="타원_39" data-name="타원 39" cx="7" cy="7" r="7" transform="translate(212 227)" fill="#a7915f"/>
    <path id="패스_345" data-name="패스 345" d="M6.993,9.153a.672.672,0,0,1-.079,0,5.675,5.675,0,0,1-2.83-1.289A7.593,7.593,0,0,1,2.12,5.344a9.948,9.948,0,0,1-1-3.633A1.434,1.434,0,0,1,1.329.829.889.889,0,0,1,1.963.4a.737.737,0,0,1,.084,0h.944a1.049,1.049,0,0,1,.923,1.03,5.886,5.886,0,0,0,.2,1.038A1.454,1.454,0,0,1,3.9,3.729l-.225.288A5.533,5.533,0,0,0,5.109,5.848l.223-.286a.8.8,0,0,1,.988-.271,3.071,3.071,0,0,0,.807.257,1.148,1.148,0,0,1,.807,1.211V7.952a1.378,1.378,0,0,1-.271.847A.842.842,0,0,1,7,9.153ZM2.988,1.2H2.047a.3.3,0,0,0-.239.143.476.476,0,0,0-.071.292,8.985,8.985,0,0,0,.908,3.28A6.868,6.868,0,0,0,4.42,7.188,5.128,5.128,0,0,0,6.977,8.354a.254.254,0,0,0,.244-.117.46.46,0,0,0,.09-.282V6.744a.383.383,0,0,0-.268-.405,3.576,3.576,0,0,1-.941-.3.263.263,0,0,0-.33.089l-.395.505A.263.263,0,0,1,5,6.7,6.261,6.261,0,0,1,3.016,4.153a.486.486,0,0,1,.05-.48l.4-.507a.484.484,0,0,0,.069-.42A6.845,6.845,0,0,1,3.3,1.537.349.349,0,0,0,2.988,1.2Zm3.7,2.775a.343.343,0,0,1-.305-.323A1.458,1.458,0,0,0,5.4,2.387a.405.405,0,0,1-.246-.468c.033-.217.2-.359.366-.315A2.184,2.184,0,0,1,6.993,3.5a.406.406,0,0,1-.246.468A.255.255,0,0,1,6.687,3.972Zm1.247,0a.352.352,0,0,1-.309-.355A2.9,2.9,0,0,0,5.422.8.388.388,0,0,1,5.147.355c.019-.219.177-.378.344-.353A3.628,3.628,0,0,1,8.244,3.524a.389.389,0,0,1-.275.442Z" transform="translate(213.888 229.832)" fill="#fff"/>
  </g>
</svg>
