<svg xmlns="http://www.w3.org/2000/svg" width="13.733" height="15.617" viewBox="0 0 13.733 15.617">
  <path id="패스_473" data-name="패스 473" d="M190.13,163.7l1.6-1.163a.464.464,0,0,0-.546-.75l-2.589,1.884h0a.456.456,0,0,0-.061.055l-.014.015a.465.465,0,0,0-.046.061v0l-.006.011a.445.445,0,0,0-.03.062l-.007.019a.465.465,0,0,0-.019.075s0,.006,0,.009a.468.468,0,0,0,0,.071c0,.006,0,.013,0,.019a.466.466,0,0,0,.01.077l0,.014a.459.459,0,0,0,.022.064l.008.019,0,.011,1.559,3.09a.464.464,0,1,0,.828-.418l-1.194-2.366a5.939,5.939,0,1,1-6.718,5.888.464.464,0,1,0-.928,0,6.867,6.867,0,1,0,8.13-6.748Z" transform="translate(-182 -161.7)" fill="#fff"/>
</svg>
