<svg xmlns="http://www.w3.org/2000/svg" width="11.361" height="17" viewBox="0 0 11.361 17">
  <g id="그룹_2878" data-name="그룹 2878" transform="translate(0)">
    <g id="그룹_2875" data-name="그룹 2875">
      <path id="패스_371" data-name="패스 371" d="M579.757,635.572h0a.627.627,0,0,1-.532-.3,95.282,95.282,0,0,1-4.772-8.84,5.67,5.67,0,0,1,.625-5.226,5.481,5.481,0,0,1,9.3-.115,5.854,5.854,0,0,1,.693,5.326,79.576,79.576,0,0,1-4.78,8.858A.625.625,0,0,1,579.757,635.572Zm0-15.749a4.307,4.307,0,0,0-3.63,2.066,4.4,4.4,0,0,0-.532,4.034,86.913,86.913,0,0,0,4.166,7.813,71.693,71.693,0,0,0,4.152-7.8,4.576,4.576,0,0,0-.579-4.151A4.235,4.235,0,0,0,579.757,619.823Z" transform="translate(-574.068 -618.572)" fill="#fff"/>
    </g>
    <g id="그룹_2876" data-name="그룹 2876" transform="translate(2.151 2.147)">
      <path id="패스_372" data-name="패스 372" d="M589.636,637.726a3.573,3.573,0,1,1,3.538-3.573A3.56,3.56,0,0,1,589.636,637.726Zm0-6.074a2.5,2.5,0,1,0,2.466,2.5A2.486,2.486,0,0,0,589.636,631.653Z" transform="translate(-586.098 -630.58)" fill="#fff"/>
    </g>
  </g>
</svg>
