<svg id="그룹_2837" data-name="그룹 2837" xmlns="http://www.w3.org/2000/svg" width="14.369" height="18" viewBox="0 0 14.369 18">
  <path id="패스_353" data-name="패스 353" d="M46.459,127.578a2.994,2.994,0,0,1-1.558-.488l-.111-.067a2.834,2.834,0,0,1-1.522-2.585,6.016,6.016,0,0,1,1.037-2.9l5.8-9.547c1.33-2.19,3.627-3,5.531-1.976a.565.565,0,0,1,.072.037h0l.105.064.006,0a.535.535,0,0,1,.066.047,4.356,4.356,0,0,1,1.019,5.955l-4.576,7.534a.585.585,0,1,1-1-.608l4.576-7.534a3.2,3.2,0,0,0-.75-4.427c-1.592-.919-3.21.131-4.049,1.512l-5.8,9.547a4.941,4.941,0,0,0-.866,2.316,1.694,1.694,0,0,0,.958,1.559l.111.067a1.415,1.415,0,0,0,1.678.086,6.168,6.168,0,0,0,1.581-1.926l.139-.228,3.543-5.755a7.683,7.683,0,0,0,.979-2.076c.175-.774-.119-1.072-.429-1.26-.776-.471-1.536.1-2.709,2.029l-2.422,3.988a.585.585,0,0,1-1-.608l2.422-3.988c.67-1.1,2.238-3.684,4.317-2.421a2.141,2.141,0,0,1,.964,2.519,8.65,8.65,0,0,1-1.123,2.428l-3.679,5.98C49.185,125.814,48.114,127.578,46.459,127.578Z" transform="translate(-43.268 -109.578)" fill="#fff"/>
</svg>
