<svg xmlns="http://www.w3.org/2000/svg" width="16.363" height="17.178" viewBox="0 0 16.363 17.178">
  <g id="그룹_2973" data-name="그룹 2973" transform="translate(-138.834 -1417.5)">
    <g id="그룹_2971" data-name="그룹 2971" transform="translate(138.834 1419.363)">
      <path id="패스_409" data-name="패스 409" d="M151.15,1443.482h-8.269a4.052,4.052,0,0,1-4.047-4.047v-7.221a4.052,4.052,0,0,1,4.047-4.047h4.251a.611.611,0,0,1,0,1.223h-4.251a2.827,2.827,0,0,0-2.824,2.824v7.221a2.827,2.827,0,0,0,2.824,2.824h8.269a2.827,2.827,0,0,0,2.824-2.824v-7.221a.611.611,0,0,1,1.223,0v7.221A4.052,4.052,0,0,1,151.15,1443.482Z" transform="translate(-138.834 -1428.167)" fill="#fff"/>
    </g>
    <g id="그룹_2972" data-name="그룹 2972" transform="translate(142.968 1417.5)">
      <path id="패스_410" data-name="패스 410" d="M166.023,1430.719a.612.612,0,0,1-.518-.287l-2.912-4.659a.611.611,0,0,1,1.037-.648l2.349,3.759,5.851-11.058a.611.611,0,1,1,1.081.572l-6.347,12a.612.612,0,0,1-.518.325Z" transform="translate(-162.5 -1417.5)" fill="#fff"/>
    </g>
  </g>
</svg>
