<svg xmlns="http://www.w3.org/2000/svg" width="18.184" height="18.184" viewBox="0 0 18.184 18.184">
  <g id="그룹_2924" data-name="그룹 2924" transform="translate(-843.981 -714.493)">
    <g id="그룹_2921" data-name="그룹 2921" transform="translate(843.981 714.493)">
      <path id="패스_389" data-name="패스 389" d="M854.248,732.677H851.9a.546.546,0,0,1-.534-.438c0-.006,0-.013,0-.019l-.307-1.878-1.331-.551-1.545,1.111a.56.56,0,0,1-.7-.057l-1.661-1.661a.546.546,0,0,1-.051-.712l1.1-1.536-.551-1.331-1.878-.307-.019,0a.546.546,0,0,1-.438-.534v-2.349a.546.546,0,0,1,.438-.534l.019,0,1.878-.307.551-1.331-1.111-1.545a.546.546,0,0,1,.057-.7l1.661-1.661a.56.56,0,0,1,.712-.051l1.536,1.1,1.331-.551.307-1.878c0-.006,0-.013,0-.019a.546.546,0,0,1,.534-.438h2.349a.547.547,0,0,1,.534.438c0,.006,0,.013,0,.019l.307,1.878,1.332.551,1.545-1.111a.56.56,0,0,1,.7.058l1.66,1.66a.546.546,0,0,1,.051.712l-1.1,1.536.551,1.331,1.878.307.019,0a.546.546,0,0,1,.438.534v2.349a.546.546,0,0,1-.438.534l-.019,0-1.878.307-.551,1.331,1.111,1.545a.546.546,0,0,1-.058.7l-1.66,1.66a.547.547,0,0,1-.385.159h0a.546.546,0,0,1-.327-.109l-1.536-1.1-1.332.551-.307,1.878c0,.006,0,.013,0,.019A.546.546,0,0,1,854.248,732.677Zm-1.889-1.086h1.429l.282-1.721c0-.006,0-.013,0-.019a.548.548,0,0,1,.327-.4l1.887-.781a.555.555,0,0,1,.536.067l1.407,1.011,1.011-1.011-1.018-1.416a.548.548,0,0,1-.061-.527l.781-1.887a.547.547,0,0,1,.4-.326l.019,0,1.721-.282V722.87l-1.721-.281-.019,0a.548.548,0,0,1-.4-.326l-.781-1.887a.547.547,0,0,1,.067-.536l1.011-1.407-1.011-1.01-1.416,1.018a.556.556,0,0,1-.527.061l-1.887-.781a.549.549,0,0,1-.327-.4c0-.006,0-.013,0-.019l-.282-1.721h-1.429l-.281,1.721,0,.019a.548.548,0,0,1-.327.4l-1.887.781a.555.555,0,0,1-.536-.068l-1.407-1.011-1.011,1.01,1.018,1.416a.548.548,0,0,1,.061.527l-.781,1.887a.548.548,0,0,1-.4.326l-.019,0-1.721.281V724.3l1.721.282.019,0a.547.547,0,0,1,.4.326h0l.781,1.887h0a.547.547,0,0,1-.068.536l-1.011,1.407,1.01,1.011,1.416-1.018a.555.555,0,0,1,.527-.061h0l1.887.781a.549.549,0,0,1,.327.4l0,.019Z" transform="translate(-843.981 -714.493)" fill="#fff"/>
    </g>
    <g id="그룹_2922" data-name="그룹 2922" transform="translate(848.566 719.078)">
      <path id="패스_390" data-name="패스 390" d="M878.043,753.06a4.507,4.507,0,1,1,4.507-4.507A4.512,4.512,0,0,1,878.043,753.06Zm0-7.928a3.421,3.421,0,1,0,3.421,3.421A3.425,3.425,0,0,0,878.043,745.132Z" transform="translate(-873.536 -744.046)" fill="#fff"/>
    </g>
    <g id="그룹_2923" data-name="그룹 2923" transform="translate(850.814 721.326)">
      <path id="패스_391" data-name="패스 391" d="M890.284,763.055a2.259,2.259,0,1,1,2.259-2.259A2.262,2.262,0,0,1,890.284,763.055Zm0-3.432a1.173,1.173,0,1,0,1.173,1.173A1.174,1.174,0,0,0,890.284,759.623Z" transform="translate(-888.025 -758.537)" fill="#fff"/>
    </g>
  </g>
</svg>
