<svg xmlns="http://www.w3.org/2000/svg" width="13.699" height="13.658" viewBox="0 0 13.699 13.658">
  <g id="그룹_2669" data-name="그룹 2669" transform="translate(0.25 0.25)">
    <path id="패스_198" data-name="패스 198" d="M1197.982,2037.52a5.152,5.152,0,0,1-3.643-8.8h0a5.152,5.152,0,1,1,3.643,8.8Zm0-9.457a4.276,4.276,0,0,0-3.044,1.261h0a4.3,4.3,0,1,0,3.044-1.261Zm-3.344.961h0Z" transform="translate(-1192.83 -2027.216)" fill="#a7915f" stroke="#a7915f" stroke-width="0.5"/>
    <path id="패스_199" data-name="패스 199" d="M1311.763,2146.573a.422.422,0,0,1-.3-.124l-4.239-4.239a.424.424,0,0,1,.6-.6l4.239,4.239a.424.424,0,0,1-.3.724Z" transform="translate(-1299.028 -2133.415)" fill="#a7915f" stroke="#a7915f" stroke-width="0.5"/>
  </g>
</svg>
