<svg xmlns="http://www.w3.org/2000/svg" width="16" height="16" viewBox="0 0 16 16">
  <g id="그룹_2876" data-name="그룹 2876" transform="translate(-15 -337)">
    <rect id="사각형_2300" data-name="사각형 2300" width="16" height="16" rx="8" transform="translate(15 337)" fill="#a7915f"/>
    <path id="합치기_2" data-name="합치기 2" d="M769.441,1625.84a.976.976,0,0,1-.238-.191.612.612,0,0,1-.137-.155l-2.6-3.98a1.014,1.014,0,0,1,.3-1.408,1.027,1.027,0,0,1,1.416.3l1.738,2.661,3.08-5.3a.982.982,0,0,1,1.338-.356.97.97,0,0,1,.358,1.33l-3.919,6.748a.982.982,0,0,1-1.338.356Z" transform="translate(-747.3 -1276.275)" fill="#fff"/>
  </g>
</svg>
