<svg xmlns="http://www.w3.org/2000/svg" width="24" height="24" viewBox="0 0 24 24">
  <path id="패스_278" data-name="패스 278" d="M288.543,154.16a12,12,0,1,0,12,12A12,12,0,0,0,288.543,154.16Zm-3.681,8.672a3.681,3.681,0,0,1,7.362,0v1.612a5.453,5.453,0,0,0-1.91-1.135v-.477a1.771,1.771,0,1,0-3.542,0v.477a5.444,5.444,0,0,0-1.91,1.135Zm3.681,10.338a4.714,4.714,0,1,1,4.714-4.714A4.719,4.719,0,0,1,288.543,173.169Zm0-6.245a1.531,1.531,0,1,0,1.531,1.531A1.533,1.533,0,0,0,288.543,166.924Z" transform="translate(-276.543 -154.16)" fill="#fff"/>
</svg>
