<svg xmlns="http://www.w3.org/2000/svg" width="35.122" height="29.047" viewBox="0 0 35.122 29.047">
  <g id="icon" transform="translate(-1055.377 -1850.49)">
    <path id="패스_196" data-name="패스 196" d="M1139.246,1875.369h-2.628a.424.424,0,0,1,0-.848h2.628a.778.778,0,0,0,.777-.777v-17.321a.778.778,0,0,0-.777-.777h-16.26a1.627,1.627,0,0,1-1.328-.689l-2.32-3.291a.778.778,0,0,0-.635-.329h-7.5a.778.778,0,0,0-.777.777v2.967a.424.424,0,1,1-.848,0v-2.967a1.626,1.626,0,0,1,1.625-1.625h7.5a1.627,1.627,0,0,1,1.328.689l2.32,3.291a.778.778,0,0,0,.635.329h16.26a1.627,1.627,0,0,1,1.625,1.625v17.321A1.626,1.626,0,0,1,1139.246,1875.369Z" transform="translate(-50.372)" fill="#465266"/>
    <path id="패스_197" data-name="패스 197" d="M1085.045,1934.369H1057a1.627,1.627,0,0,1-1.625-1.625v-21.63a1.627,1.627,0,0,1,1.625-1.625h7.5a1.627,1.627,0,0,1,1.328.689l2.32,3.291a.778.778,0,0,0,.635.329h16.26a1.627,1.627,0,0,1,1.625,1.625v17.321A1.627,1.627,0,0,1,1085.045,1934.369ZM1057,1910.338a.778.778,0,0,0-.777.777v21.63a.778.778,0,0,0,.777.777h28.044a.778.778,0,0,0,.777-.777v-17.321a.778.778,0,0,0-.777-.777h-16.26a1.627,1.627,0,0,1-1.328-.689l-2.32-3.291a.778.778,0,0,0-.635-.329Z" transform="translate(0 -54.832)" fill="#465266"/>
    <g id="그룹_2669" data-name="그룹 2669" transform="translate(1065.087 1862.974)">
      <path id="패스_198" data-name="패스 198" d="M1197.982,2037.52a5.152,5.152,0,0,1-3.643-8.8h0a5.152,5.152,0,1,1,3.643,8.8Zm0-9.457a4.276,4.276,0,0,0-3.044,1.261h0a4.3,4.3,0,1,0,3.044-1.261Zm-3.344.961h0Z" transform="translate(-1192.83 -2027.216)" fill="#976f12"/>
      <path id="패스_199" data-name="패스 199" d="M1311.763,2146.573a.422.422,0,0,1-.3-.124l-4.239-4.239a.424.424,0,0,1,.6-.6l4.239,4.239a.424.424,0,0,1-.3.724Z" transform="translate(-1299.028 -2133.415)" fill="#976f12"/>
    </g>
  </g>
</svg>
