<svg xmlns="http://www.w3.org/2000/svg" width="12.458" height="13" viewBox="0 0 12.458 13">
  <g id="그룹_2740" data-name="그룹 2740" transform="translate(-1 0)">
    <path id="패스_325" data-name="패스 325" d="M13.187,6.491A.27.27,0,0,1,13,6.412L7.229.653,1.462,6.412a.271.271,0,0,1-.383-.382L7.037.079a.271.271,0,0,1,.383,0L13.379,6.03a.27.27,0,0,1-.191.462Z" transform="translate(0 0)" fill="#fff"/>
    <path id="패스_326" data-name="패스 326" d="M15.023,30.492H11.773a.27.27,0,0,1-.271-.27V26.164H8.522v4.057a.271.271,0,0,1-.271.27H5.271A.271.271,0,0,1,5,30.221V24.27a.271.271,0,0,1,.542,0v5.68H7.98V25.893a.271.271,0,0,1,.271-.27h3.522a.27.27,0,0,1,.271.27v4.057h2.709V24.27a.271.271,0,0,1,.542,0v5.951A.27.27,0,0,1,15.023,30.492Z" transform="translate(-2.918 -17.492)" fill="#fff"/>
  </g>
</svg>
