<svg xmlns="http://www.w3.org/2000/svg" width="23.454" height="30.776" viewBox="0 0 23.454 30.776">
  <g id="그룹_2871" data-name="그룹 2871" transform="translate(-423.84 -2480.95)">
    <path id="패스_330" data-name="패스 330" d="M446.662,2570.723h-22.19a.633.633,0,0,1-.632-.632v-25.608a.633.633,0,0,1,.632-.632h5.386a.372.372,0,0,1,0,.745h-5.274v25.384h21.965v-25.384h-5.274a.372.372,0,0,1,0-.745h5.386a.633.633,0,0,1,.632.632v25.608A.633.633,0,0,1,446.662,2570.723Zm0-26.128h0Z" transform="translate(0 -58.997)" fill="#465266"/>
    <path id="패스_331" data-name="패스 331" d="M526.369,2487.341h-10.9a.633.633,0,0,1-.632-.632v-3.017a.633.633,0,0,1,.632-.632h2.212a3.538,3.538,0,0,1,6.474,0h2.212a.633.633,0,0,1,.632.632v3.017A.633.633,0,0,1,526.369,2487.341Zm-10.785-.744h10.672V2483.8h-2.174a.631.631,0,0,1-.583-.39,2.794,2.794,0,0,0-5.158,0,.631.631,0,0,1-.583.39h-2.174Zm10.785-2.792h0Zm-2.182-.676h0Z" transform="translate(-85.354 0)" fill="#465266"/>
    <path id="패스_332" data-name="패스 332" d="M504.278,2649.694h-8.066a.372.372,0,1,1,0-.744h8.066a.372.372,0,1,1,0,.744Z" transform="translate(-67.533 -157.576)" fill="#976f12"/>
    <path id="패스_333" data-name="패스 333" d="M509.987,2706.494H496.212a.372.372,0,1,1,0-.744h13.775a.372.372,0,1,1,0,.744Z" transform="translate(-67.533 -210.852)" fill="#976f12"/>
    <path id="패스_334" data-name="패스 334" d="M509.987,2763.195H496.212a.372.372,0,1,1,0-.744h13.775a.372.372,0,1,1,0,.744Z" transform="translate(-67.533 -264.034)" fill="#976f12"/>
    <path id="패스_335" data-name="패스 335" d="M506.884,2819.995H496.212a.372.372,0,0,1,0-.745h10.672a.372.372,0,0,1,0,.745Z" transform="translate(-67.533 -317.309)" fill="#976f12"/>
    <path id="패스_336" data-name="패스 336" d="M509.987,2876.695H496.212a.372.372,0,0,1,0-.745h13.775a.372.372,0,0,1,0,.745Z" transform="translate(-67.533 -370.491)" fill="#976f12"/>
  </g>
</svg>
