<svg xmlns="http://www.w3.org/2000/svg" width="30" height="30" viewBox="0 0 30 30">
  <g id="그룹_2885" data-name="그룹 2885" transform="translate(-15 -231)">
    <g id="타원_42" data-name="타원 42" transform="translate(15 231)" fill="#fff" stroke="#a7915f" stroke-width="1">
      <circle cx="15" cy="15" r="15" stroke="none"/>
      <circle cx="15" cy="15" r="14.5" fill="none"/>
    </g>
    <g id="그룹_2675" data-name="그룹 2675" transform="translate(-3204.367 -1552.587)">
      <g id="그룹_2673" data-name="그룹 2673" transform="translate(3227.367 1790.586)">
        <path id="패스_213" data-name="패스 213" d="M3290.418,1945.094h-2.086a.467.467,0,0,1-.466-.466v-7.686a.467.467,0,0,1,.466-.466h2.086a.466.466,0,0,1,.466.466v7.686A.467.467,0,0,1,3290.418,1945.094Zm-2.086-8.245a.093.093,0,0,0-.093.093v7.686a.093.093,0,0,0,.093.093h2.086a.093.093,0,0,0,.093-.093v-7.686a.093.093,0,0,0-.093-.093Z" transform="translate(-3285.985 -1931.937)" fill="#465266"/>
        <path id="패스_214" data-name="패스 214" d="M3289.309,1794.225a1.369,1.369,0,0,1-1.438-1.309c0-.016,0-.032,0-.047a3.433,3.433,0,0,1,1.187-2.152.465.465,0,0,1,.645,0,3.43,3.43,0,0,1,1.186,2.152.385.385,0,0,1,0,.047,1.378,1.378,0,0,1-1.5,1.308h-.072Zm.068-3.265a.093.093,0,0,0-.064.026,3.168,3.168,0,0,0-1.071,1.886.111.111,0,0,0,0,.013,1.008,1.008,0,0,0,1.115.966h.04a1.009,1.009,0,0,0,1.115-.966s0-.008,0-.012a3.167,3.167,0,0,0-1.071-1.887A.093.093,0,0,0,3289.377,1790.96Z" transform="translate(-3285.986 -1790.586)" fill="#976f12"/>
        <rect id="사각형_1858" data-name="사각형 1858" width="6.782" height="0.373" transform="translate(0 12.783)" fill="#465266"/>
        <rect id="사각형_1859" data-name="사각형 1859" width="4.293" height="0.373" transform="translate(1.244 14.868)" fill="#465266"/>
        <rect id="사각형_1860" data-name="사각형 1860" width="0.373" height="2.084" transform="translate(3.204 12.97)" fill="#465266"/>
      </g>
      <g id="그룹_2674" data-name="그룹 2674" transform="translate(3234.585 1792.142)">
        <path id="패스_215" data-name="패스 215" d="M3522.419,1993.538h-2.086a.467.467,0,0,1-.466-.466v-6.13a.467.467,0,0,1,.466-.466h2.086a.467.467,0,0,1,.466.466v6.13A.467.467,0,0,1,3522.419,1993.538Zm-2.086-6.689a.093.093,0,0,0-.093.093v6.13a.093.093,0,0,0,.093.093h2.086a.093.093,0,0,0,.093-.093v-6.13a.093.093,0,0,0-.093-.093Z" transform="translate(-3517.985 -1981.937)" fill="#465266"/>
        <path id="패스_216" data-name="패스 216" d="M3521.309,1844.225a1.37,1.37,0,0,1-1.438-1.309.437.437,0,0,1,0-.047,3.432,3.432,0,0,1,1.186-2.152.465.465,0,0,1,.645,0,3.432,3.432,0,0,1,1.187,2.152.447.447,0,0,1,0,.047,1.378,1.378,0,0,1-1.5,1.308h-.072Zm.069-3.265a.092.092,0,0,0-.064.026,3.167,3.167,0,0,0-1.072,1.886.108.108,0,0,0,0,.012,1.009,1.009,0,0,0,1.115.966h.04a1.009,1.009,0,0,0,1.115-.966.1.1,0,0,0,0-.012,3.168,3.168,0,0,0-1.071-1.887A.093.093,0,0,0,3521.377,1840.96Z" transform="translate(-3517.986 -1840.586)" fill="#976f12"/>
        <rect id="사각형_1861" data-name="사각형 1861" width="6.782" height="0.373" transform="translate(0 11.228)" fill="#465266"/>
        <rect id="사각형_1862" data-name="사각형 1862" width="4.293" height="0.373" transform="translate(1.244 13.312)" fill="#465266"/>
        <rect id="사각형_1863" data-name="사각형 1863" width="0.373" height="2.084" transform="translate(3.204 11.414)" fill="#465266"/>
      </g>
    </g>
  </g>
</svg>
