<svg xmlns="http://www.w3.org/2000/svg" width="32.919" height="31.245" viewBox="0 0 32.919 31.245">
  <g id="그룹_2869" data-name="그룹 2869" transform="translate(-3192.016 -3944.014)">
    <path id="패스_327" data-name="패스 327" d="M3224.936,3976.194h-32.919v-3.437a1.522,1.522,0,0,1,1.52-1.52h29.879a1.522,1.522,0,0,1,1.521,1.52Zm-32.126-.793h31.333v-2.644a.728.728,0,0,0-.728-.727h-29.879a.728.728,0,0,0-.727.727Z" transform="translate(0 -25.423)" fill="#465266"/>
    <path id="패스_328" data-name="패스 328" d="M3246.459,4052.959h-26.368a1.522,1.522,0,0,1-1.521-1.521v-17.2h29.409v17.2A1.522,1.522,0,0,1,3246.459,4052.959Zm-27.095-17.93v16.409a.728.728,0,0,0,.727.728h26.368a.729.729,0,0,0,.728-.728V4035.03Z" transform="translate(-24.799 -84.258)" fill="#465266"/>
    <rect id="사각형_1937" data-name="사각형 1937" width="0.793" height="2.196" transform="translate(3208.079 3944.014)" fill="#465266"/>
    <rect id="사각형_1938" data-name="사각형 1938" width="0.793" height="6.558" transform="translate(3208.079 3968.304)" fill="#465266"/>
    <rect id="사각형_1939" data-name="사각형 1939" width="10.608" height="0.793" transform="translate(3203.172 3974.465)" fill="#465266"/>
    <path id="패스_329" data-name="패스 329" d="M3296.823,4128.408a.4.4,0,0,1-.246-.708l4.478-3.533a.4.4,0,0,1,.421-.045l4.613,2.272,4.45-5.73a.4.4,0,0,1,.354-.151l4.293.436a.4.4,0,1,1-.08.79l-4.075-.415-4.514,5.812a.4.4,0,0,1-.488.112l-4.678-2.3-4.281,3.377A.392.392,0,0,1,3296.823,4128.408Z" transform="translate(-97.508 -164.831)" fill="#976f12"/>
  </g>
</svg>
