<svg xmlns="http://www.w3.org/2000/svg" width="25.831" height="31" viewBox="0 0 25.831 31">
  <g id="그룹_2678" data-name="그룹 2678" transform="translate(-38.611 -25.207)">
    <g id="그룹_2677" data-name="그룹 2677" transform="translate(43.101 31.714)">
      <path id="패스_217" data-name="패스 217" d="M77.777,73.739s1.1-1.154,2.1.43C79.879,74.169,78.424,75.263,77.777,73.739Z" transform="translate(-68.072 -62.472)" fill="#976f12"/>
      <path id="패스_218" data-name="패스 218" d="M76.984,70.453s-1.007-1.238.689-2.032C77.673,68.421,78.576,70,76.984,70.453Z" transform="translate(-67.368 -59.299)" fill="#976f12"/>
      <path id="패스_219" data-name="패스 219" d="M83.075,71.088s.943-1.287,2.14.153C85.215,71.241,83.914,72.515,83.075,71.088Z" transform="translate(-71.493 -60.68)" fill="#976f12"/>
      <path id="패스_220" data-name="패스 220" d="M82.034,67.931s-1.16-1.1.419-2.1C82.453,65.826,83.555,67.275,82.034,67.931Z" transform="translate(-70.556 -57.623)" fill="#976f12"/>
      <path id="패스_221" data-name="패스 221" d="M88.06,67.074s.506-1.513,2.085-.506C90.145,66.568,89.294,68.178,88.06,67.074Z" transform="translate(-74.713 -57.879)" fill="#976f12"/>
      <path id="패스_222" data-name="패스 222" d="M86.386,64.558s-1.439-.69-.242-2.132C86.144,62.426,87.635,63.471,86.386,64.558Z" transform="translate(-73.168 -55.428)" fill="#976f12"/>
      <path id="패스_223" data-name="패스 223" d="M91.11,61.6s.06-1.595,1.858-1.072C92.968,60.53,92.605,62.314,91.11,61.6Z" transform="translate(-76.682 -54.135)" fill="#976f12"/>
      <path id="패스_224" data-name="패스 224" d="M88.829,60.072s-1.575-.258-.833-1.978C88,58.094,89.72,58.676,88.829,60.072Z" transform="translate(-74.543 -52.63)" fill="#976f12"/>
      <path id="패스_225" data-name="패스 225" d="M93.479,55.206S93.127,53.65,95,53.691C95,53.691,95.107,55.508,93.479,55.206Z" transform="translate(-78.195 -49.786)" fill="#976f12"/>
      <path id="패스_226" data-name="패스 226" d="M90.668,54.909s-1.588.155-1.314-1.7C89.354,53.212,91.17,53.331,90.668,54.909Z" transform="translate(-75.528 -49.477)" fill="#976f12"/>
      <path id="패스_227" data-name="패스 227" d="M94.36,49.06s-.741-1.414,1.08-1.855C95.44,47.205,96.011,48.934,94.36,49.06Z" transform="translate(-78.685 -45.598)" fill="#976f12"/>
      <path id="패스_228" data-name="패스 228" d="M91.991,44.6s-1.585-.185-.923-1.937C91.067,42.667,92.817,43.169,91.991,44.6Z" transform="translate(-76.55 -42.667)" fill="#976f12"/>
      <path id="패스_229" data-name="패스 229" d="M91.138,50.146s-1.495.559-1.705-1.3C89.433,48.844,91.22,48.493,91.138,50.146Z" transform="translate(-75.599 -46.636)" fill="#976f12"/>
      <path id="패스_230" data-name="패스 230" d="M66.716,73.739s-1.1-1.154-2.1.43C64.614,74.169,66.069,75.263,66.716,73.739Z" transform="translate(-59.571 -62.472)" fill="#976f12"/>
      <path id="패스_231" data-name="패스 231" d="M69.08,70.453s1.008-1.238-.689-2.032C68.391,68.421,67.487,70,69.08,70.453Z" transform="translate(-61.845 -59.299)" fill="#976f12"/>
      <path id="패스_232" data-name="패스 232" d="M61.349,71.088s-.944-1.287-2.14.153C59.209,71.241,60.509,72.515,61.349,71.088Z" transform="translate(-56.081 -60.68)" fill="#976f12"/>
      <path id="패스_233" data-name="패스 233" d="M64.076,67.931s1.16-1.1-.419-2.1C63.658,65.826,62.556,67.275,64.076,67.931Z" transform="translate(-58.704 -57.623)" fill="#976f12"/>
      <path id="패스_234" data-name="패스 234" d="M56.465,67.074s-.506-1.513-2.085-.506C54.38,66.568,55.231,68.178,56.465,67.074Z" transform="translate(-52.962 -57.879)" fill="#976f12"/>
      <path id="패스_235" data-name="패스 235" d="M59.723,64.558s1.438-.69.242-2.132C59.965,62.426,58.474,63.471,59.723,64.558Z" transform="translate(-56.09 -55.428)" fill="#976f12"/>
      <path id="패스_236" data-name="패스 236" d="M53.827,61.6s-.06-1.595-1.858-1.072C51.969,60.53,52.332,62.314,53.827,61.6Z" transform="translate(-51.405 -54.135)" fill="#976f12"/>
      <path id="패스_237" data-name="패스 237" d="M57.15,60.072s1.575-.258.833-1.978C57.983,58.094,56.258,58.676,57.15,60.072Z" transform="translate(-54.586 -52.63)" fill="#976f12"/>
      <path id="패스_238" data-name="패스 238" d="M52.026,55.206s.352-1.557-1.52-1.515C50.506,53.691,50.4,55.508,52.026,55.206Z" transform="translate(-50.459 -49.786)" fill="#976f12"/>
      <path id="패스_239" data-name="패스 239" d="M55.045,54.909s1.589.155,1.314-1.7C56.359,53.212,54.543,53.331,55.045,54.909Z" transform="translate(-53.335 -49.477)" fill="#976f12"/>
      <path id="패스_240" data-name="패스 240" d="M51.552,49.06s.74-1.414-1.08-1.855C50.472,47.205,49.9,48.934,51.552,49.06Z" transform="translate(-50.376 -45.598)" fill="#976f12"/>
      <path id="패스_241" data-name="패스 241" d="M53.953,44.6s1.585-.185.923-1.937C54.876,42.667,53.126,43.169,53.953,44.6Z" transform="translate(-52.543 -42.667)" fill="#976f12"/>
      <path id="패스_242" data-name="패스 242" d="M54.072,50.146s1.5.559,1.705-1.3C55.778,48.844,53.992,48.493,54.072,50.146Z" transform="translate(-52.761 -46.636)" fill="#976f12"/>
    </g>
    <path id="패스_243" data-name="패스 243" d="M50.366,34.627" transform="translate(-7.269 -5.761)" fill="#ffde39"/>
    <path id="패스_244" data-name="패스 244" d="M39.111,25.707l.808,20.27s0,2.58,11.6,9.724v.006l0,0,.005,0V55.7c11.6-7.144,11.6-9.724,11.6-9.724l.808-20.27Z" fill="none" stroke="#465266" stroke-linejoin="round" stroke-miterlimit="10" stroke-width="1"/>
  </g>
</svg>
