<svg xmlns="http://www.w3.org/2000/svg" width="24" height="24" viewBox="0 0 24 24">
  <path id="패스_277" data-name="패스 277" d="M386.978,410.8a12,12,0,1,0,12,12A12,12,0,0,0,386.978,410.8Zm-5.477,19,.47-2.4a3.2,3.2,0,0,1,3.132-2.577h1.031l.2-.512a2.555,2.555,0,0,1-.347-.129,3.8,3.8,0,0,1-1.81-1.954,6.012,6.012,0,0,1-.463-1.557,6.784,6.784,0,0,1-.087-1.066,4.056,4.056,0,0,1,.907-2.808,3.51,3.51,0,0,1,4.9,0,4.055,4.055,0,0,1,.907,2.808,6.792,6.792,0,0,1-.086,1.066,6.021,6.021,0,0,1-.463,1.557,3.8,3.8,0,0,1-1.81,1.954,2.544,2.544,0,0,1-.347.129l.2.512h1.031a3.2,3.2,0,0,1,3.132,2.577l.47,2.4Z" transform="translate(-374.978 -410.801)" fill="#fff"/>
</svg>
