<svg xmlns="http://www.w3.org/2000/svg" width="40" height="40" viewBox="0 0 40 40">
  <g id="icon" transform="translate(-20 -83)">
    <circle id="타원_13" data-name="타원 13" cx="20" cy="20" r="20" transform="translate(20 83)" fill="#fff"/>
    <g id="그룹_2593" data-name="그룹 2593" transform="translate(20.9 92)">
      <path id="패스_96" data-name="패스 96" d="M124.7,11.6a5.8,5.8,0,1,1,5.8-5.8A5.81,5.81,0,0,1,124.7,11.6Zm0-10.739a4.938,4.938,0,1,0,4.936,4.94A4.941,4.941,0,0,0,124.7.864Z" transform="translate(-106.11)" fill="#6a6e7c" stroke="#707070" stroke-width="1"/>
      <path id="패스_97" data-name="패스 97" d="M28.663,264.634a.434.434,0,0,1-.432-.432,9.634,9.634,0,0,0-19.268,0,.432.432,0,1,1-.864,0,10.5,10.5,0,0,1,21,0A.447.447,0,0,1,28.663,264.634Z" transform="translate(0 -242.961)" fill="#6a6e7c" stroke="#707070" stroke-width="1"/>
    </g>
  </g>
</svg>
