<svg xmlns="http://www.w3.org/2000/svg" width="30" height="30" viewBox="0 0 30 30">
  <g id="그룹_2885" data-name="그룹 2885" transform="translate(-15 -231)">
    <g id="타원_42" data-name="타원 42" transform="translate(15 231)" fill="#fff" stroke="#a7915f" stroke-width="1">
      <circle cx="15" cy="15" r="15" stroke="none"/>
      <circle cx="15" cy="15" r="14.5" fill="none"/>
    </g>
    <g id="그룹_2890" data-name="그룹 2890" transform="translate(-135.524 -5.665)">
      <path id="패스_374" data-name="패스 374" d="M186.46,256.771h0a1.381,1.381,0,0,0-.272-.048,1.315,1.315,0,0,0,.193-.2c.381-.525-.023-1.448-.919-2.1s-1.9-.748-2.279-.224a1.218,1.218,0,0,0-.135.247,1.258,1.258,0,0,0-.132-.245,1.014,1.014,0,0,0-1.008-.324,2.886,2.886,0,0,0-1.275.546c-.9.652-1.3,1.576-.916,2.1a1.279,1.279,0,0,0,.192.2,1.376,1.376,0,0,0-.274.049.844.844,0,0,0-.484.443,2.492,2.492,0,0,0-.008,1.8,2.747,2.747,0,0,0,.84,1.3l-.153-.112-.331.689c-.1.224-.183.456-.268.689-.043.119-.087.239-.137.372-.072.237-.138.477-.2.716l-.1.36c-.061.235-.106.471-.152.7-.023.12-.046.239-.072.361l-.035.177c-.023.114-.046.227-.062.338l-.182,1.382c-.02.183-.032.355-.042.516l-.112,1.553,1.689-.015-.046-1.253c0-.079-.006-.162-.009-.249-.006-.149-.013-.309-.013-.472l.029-1.334c0-.1.012-.2.022-.3l.015-.174c.012-.119.022-.241.032-.364.017-.214.035-.433.066-.646l.063-.382c.035-.219.071-.44.109-.646.033-.124.063-.25.094-.376.052-.215.1-.431.168-.632l.223-.632-.139-.044a.781.781,0,0,0,.422-.009,1.307,1.307,0,0,0,.251-.12,1.268,1.268,0,0,0-.037.276c0,.65.868,1.159,1.977,1.159s1.977-.509,1.977-1.159a1.275,1.275,0,0,0-.036-.275,1.263,1.263,0,0,0,.25.119c.619.2,1.371-.468,1.715-1.522S187.078,256.972,186.46,256.771Zm-6.486,4.322c-.068.216-.123.439-.177.663-.03.123-.06.246-.1.383-.041.223-.077.447-.113.67l-.063.383c-.033.226-.051.452-.069.675-.01.12-.019.239-.032.361l-.015.171c-.011.11-.021.219-.023.328l-.029,1.338c0,.174.007.339.014.493l.04,1.092-.851.007.081-1.126c.01-.156.022-.323.04-.5l.182-1.377c.013-.1.035-.206.057-.31l.036-.179c.025-.12.049-.241.073-.363.043-.224.087-.451.145-.675l.1-.358c.065-.236.131-.472.2-.693.047-.121.091-.243.135-.365.082-.224.163-.447.257-.662l.127-.265c.027.014.053.028.08.04Zm6.6-2.205c-.289.886-.872,1.377-1.215,1.267a2.177,2.177,0,0,1-.655-.461l-.764-.718.449.948a2.2,2.2,0,0,1,.237.765c0,.361-.649.763-1.58.763s-1.58-.4-1.58-.763a2.231,2.231,0,0,1,.233-.761l.425-.918-.74.689a2.211,2.211,0,0,1-.652.457.459.459,0,0,1-.35-.05,2.5,2.5,0,0,1-.881-2.711.453.453,0,0,1,.252-.245,2.244,2.244,0,0,1,.805-.011l1.034.131-.914-.5a2.229,2.229,0,0,1-.644-.48c-.213-.292.076-1,.829-1.548a2.493,2.493,0,0,1,1.093-.474.659.659,0,0,1,.635.165,2.211,2.211,0,0,1,.256.756l.192,1,.2-1a2.185,2.185,0,0,1,.262-.758c.212-.292.973-.237,1.725.309s1.043,1.258.832,1.548a2.222,2.222,0,0,1-.646.481l-.919.5,1.038-.131a2.255,2.255,0,0,1,.807.011C186.681,257.261,186.862,258,186.575,258.888Z" transform="translate(-13.034 -6.75)" fill="#465266"/>
      <path id="패스_375" data-name="패스 375" d="M189.6,260.766a1.427,1.427,0,0,0-1.021-.748,1.411,1.411,0,0,0-.513,0,1.447,1.447,0,0,0-1.028.746,1.394,1.394,0,0,0-.15.458,1.265,1.265,0,0,0-.018.222,1.447,1.447,0,0,0,.409,1.012,1.45,1.45,0,0,0,1.671.294,1.422,1.422,0,0,0,.409-.3,1.444,1.444,0,0,0,.41-1.01,1.094,1.094,0,0,0-.015-.2A1.428,1.428,0,0,0,189.6,260.766Zm-.311.28a.962.962,0,0,0-.041-.1h0C189.262,260.982,189.273,261.014,189.286,261.046Zm.036.1c0-.006,0-.013,0-.019S189.321,261.135,189.322,261.141Zm-.119-.253a1.021,1.021,0,0,0-.093-.137A1.06,1.06,0,0,1,189.2,260.889Zm-.108-.15a1.037,1.037,0,0,0-.593-.33h0A1.032,1.032,0,0,1,189.1,260.738Zm-1.067,1.3a.65.65,0,0,1-.367-.59.514.514,0,0,1,.007-.09.645.645,0,0,1,.069-.217.656.656,0,0,1,.467-.339.593.593,0,0,1,.113-.011.581.581,0,0,1,.113.011.644.644,0,0,1,.464.336h0a.658.658,0,0,1,.072.228.416.416,0,0,1,.006.08.659.659,0,0,1-.187.459.659.659,0,0,1-.758.132Zm.523.437c-.01,0-.021,0-.032,0C188.53,262.472,188.541,262.473,188.551,262.471Zm.382-.173c-.021.015-.045.026-.067.04C188.888,262.323,188.912,262.312,188.933,262.3Zm-.484-1.894a1.009,1.009,0,0,0-.134-.012h0A.98.98,0,0,1,188.449,260.4Zm-.163-.01a.95.95,0,0,0-.153.014h0A.956.956,0,0,1,188.286,260.393Zm-.9.557a1.028,1.028,0,0,0-.07.166,1.013,1.013,0,0,1,.069-.165Zm-.079.2a1,1,0,0,0-.031.133v0A.931.931,0,0,1,187.307,261.154Zm.286,1.054a1.056,1.056,0,0,0,.258.182h0A1.014,1.014,0,0,1,187.594,262.207Zm.719.289h0Zm.384-.077c.026-.01.053-.016.078-.028h0C188.749,262.4,188.722,262.409,188.7,262.419Zm.375-.242a1.055,1.055,0,0,0,.165-.231,1.055,1.055,0,0,1-.165.231Zm.288-.872,0,.008a.776.776,0,0,1,.009.129A.764.764,0,0,0,189.359,261.306Z" transform="translate(-18.303 -10.453)" fill="#976f12"/>
      <path id="패스_376" data-name="패스 376" d="M164.734,254.672l-.131-1.5v-.01c-.045-.331-.1-.661-.158-.988-.029-.167-.058-.334-.088-.517l-.187-.719c-.019-.069-.037-.138-.054-.208a3.439,3.439,0,0,0-.153-.5l-.24-.645a1.277,1.277,0,0,0-.07-.164l-.1-.217-.083.036a2.526,2.526,0,0,0,1.03-1.429,2.494,2.494,0,0,0-.008-1.8.845.845,0,0,0-.486-.443,1.271,1.271,0,0,0-.273-.05,1.289,1.289,0,0,0,.193-.2c.383-.527-.02-1.451-.917-2.1a2.892,2.892,0,0,0-1.274-.547,1.018,1.018,0,0,0-1.008.324,1.278,1.278,0,0,0-.132.246,1.221,1.221,0,0,0-.134-.246,1.016,1.016,0,0,0-1.007-.325,2.9,2.9,0,0,0-1.273.547c-.9.654-1.3,1.577-.918,2.1a1.3,1.3,0,0,0,.192.2,1.287,1.287,0,0,0-.275.05c-.618.2-.834,1.184-.492,2.24a2.91,2.91,0,0,0,.708,1.192,1.013,1.013,0,0,0,1,.33,1.237,1.237,0,0,0,.252-.119,1.269,1.269,0,0,0-.036.275c0,.65.868,1.159,1.977,1.159s1.977-.51,1.977-1.159a1.269,1.269,0,0,0-.037-.277,1.237,1.237,0,0,0,.251.12.749.749,0,0,0,.287.031l-.206.047.1.239a1.245,1.245,0,0,1,.059.171l.185.655a2.9,2.9,0,0,1,.1.436c.012.073.025.146.038.215l.121.68c.014.176.03.353.046.53.027.3.055.607.072.9l.011,1.44L163.5,256.1c-.012.341-.056.676-.1,1l-.183,1.456-.47,2.6,1.66.275.2-2.015c.022-.216.046-.448.066-.7l.069-1.517c.016-.343.033-.7.018-1.066Zm-1.83-5.708a2.214,2.214,0,0,1-.651-.457l-.742-.69.426.919a2.229,2.229,0,0,1,.233.762c0,.361-.649.763-1.58.763s-1.58-.4-1.58-.763a2.188,2.188,0,0,1,.237-.765l.451-.951-.767.722a2.16,2.16,0,0,1-.656.461.659.659,0,0,1-.609-.239,2.513,2.513,0,0,1-.6-1.027c-.287-.887-.106-1.628.236-1.739a2.209,2.209,0,0,1,.806-.011l1.042.133-.921-.5a2.244,2.244,0,0,1-.646-.481c-.211-.291.078-1,.831-1.548a2.5,2.5,0,0,1,1.092-.475.659.659,0,0,1,.635.167,2.205,2.205,0,0,1,.26.756l.2,1,.192-1.005a2.214,2.214,0,0,1,.257-.757.666.666,0,0,1,.635-.165,2.494,2.494,0,0,1,1.093.475c.754.547,1.042,1.255.83,1.547a2.247,2.247,0,0,1-.645.481l-.916.5,1.037-.134a2.2,2.2,0,0,1,.8.011.455.455,0,0,1,.254.245,2.132,2.132,0,0,1-.016,1.494h0a2.131,2.131,0,0,1-.865,1.217A.455.455,0,0,1,162.9,248.965Zm1.445,8.219-.068,1.511c-.02.243-.043.472-.065.686l-.16,1.595-.846-.14.4-2.217.184-1.465c.043-.333.088-.678.1-1.032l.086-1.421-.011-1.463c-.018-.31-.046-.618-.073-.926-.016-.176-.032-.351-.048-.544l-.124-.7c-.014-.069-.025-.138-.037-.207a3.182,3.182,0,0,0-.108-.487l-.017-.058.028.076a3.042,3.042,0,0,1,.137.448c.018.073.037.145.056.214l.182.7q.041.25.085.5c.055.321.111.645.156.97l.13,1.477.029,1.455C164.382,256.5,164.366,256.849,164.35,257.184Z" transform="translate(0 0)" fill="#465266"/>
      <path id="패스_377" data-name="패스 377" d="M165.849,249.567a1.427,1.427,0,0,0-1.008-.738,1.369,1.369,0,0,0-.521,0,1.447,1.447,0,0,0-1.029.746,1.391,1.391,0,0,0-.152.456,1.222,1.222,0,0,0-.019.226,1.45,1.45,0,0,0,.413,1.013,1.459,1.459,0,0,0,1.037.436,1.4,1.4,0,0,0,.632-.144,1.465,1.465,0,0,0,.409-.294h0a1.446,1.446,0,0,0,.408-1.01,1.2,1.2,0,0,0-.014-.2A1.458,1.458,0,0,0,165.849,249.567Zm-.35.188h0a1.043,1.043,0,0,0-.738-.538h.006A1.033,1.033,0,0,1,165.5,249.755Zm-1.4.956a.656.656,0,0,1-.187-.458.464.464,0,0,1,.008-.091.643.643,0,0,1,.071-.219.655.655,0,0,1,.47-.337.549.549,0,0,1,.108-.01.586.586,0,0,1,.116.012.65.65,0,0,1,.534.562.485.485,0,0,1,.006.083.654.654,0,0,1-.183.457.661.661,0,0,1-.943,0Zm.47-1.512h0a.874.874,0,0,0-.179.017h0A.854.854,0,0,1,164.57,249.2Zm-.748.321c-.014.015-.032.026-.045.041C163.79,249.546,163.807,249.535,163.822,249.52Zm-.058.06a1.031,1.031,0,0,0-.122.178h0A1.011,1.011,0,0,1,163.764,249.58Zm-.2.363a.937.937,0,0,0-.035.152v-.006A.906.906,0,0,1,163.566,249.943Zm.071-.173a1.088,1.088,0,0,0-.067.158A1.155,1.155,0,0,1,163.637,249.77Zm.18,1.219h0a1.051,1.051,0,0,0,.259.19A1.047,1.047,0,0,1,163.817,250.989Zm.755.316a1.062,1.062,0,0,0,.238-.026A1.078,1.078,0,0,1,164.571,251.305Zm.3-.049a.985.985,0,0,0,.154-.055h0A.986.986,0,0,1,164.874,251.256Zm.729-.8a1.055,1.055,0,0,0,.019-.2.9.9,0,0,0-.01-.14v0a.8.8,0,0,1,.009.135A1.055,1.055,0,0,1,165.6,250.456Z" transform="translate(-3.979 -3.702)" fill="#976f12"/>
    </g>
  </g>
</svg>
