<svg xmlns="http://www.w3.org/2000/svg" width="30" height="30" viewBox="0 0 30 30">
  <g id="그룹_2885" data-name="그룹 2885" transform="translate(-15 -231)">
    <g id="타원_42" data-name="타원 42" transform="translate(15 231)" fill="#fff" stroke="#a7915f" stroke-width="1">
      <circle cx="15" cy="15" r="15" stroke="none"/>
      <circle cx="15" cy="15" r="14.5" fill="none"/>
    </g>
    <g id="그룹_2678" data-name="그룹 2678" transform="translate(-16.111 212.969)">
      <g id="그룹_2677" data-name="그룹 2677" transform="translate(41.279 28.971)">
        <path id="패스_217" data-name="패스 217" d="M77.777,73.554s.6-.627,1.142.234C78.919,73.788,78.129,74.382,77.777,73.554Z" transform="translate(-72.504 -67.432)" fill="#976f12"/>
        <path id="패스_218" data-name="패스 218" d="M76.848,69.525s-.547-.673.374-1.1C77.222,68.421,77.713,69.279,76.848,69.525Z" transform="translate(-71.624 -63.465)" fill="#976f12"/>
        <path id="패스_219" data-name="패스 219" d="M83.075,70.846s.512-.7,1.163.083C84.238,70.93,83.531,71.622,83.075,70.846Z" transform="translate(-76.783 -65.192)" fill="#976f12"/>
        <path id="패스_220" data-name="패스 220" d="M81.847,66.97s-.63-.6.227-1.144C82.074,65.826,82.673,66.613,81.847,66.97Z" transform="translate(-75.611 -61.369)" fill="#976f12"/>
        <path id="패스_221" data-name="패스 221" d="M88.06,66.685s.275-.822,1.133-.275C89.193,66.41,88.731,67.285,88.06,66.685Z" transform="translate(-80.808 -61.69)" fill="#976f12"/>
        <path id="패스_222" data-name="패스 222" d="M86.059,63.584s-.782-.375-.132-1.158C85.927,62.426,86.737,62.994,86.059,63.584Z" transform="translate(-78.877 -58.624)" fill="#976f12"/>
        <path id="패스_223" data-name="패스 223" d="M91.11,61.065s.033-.867,1.01-.583C92.12,60.482,91.922,61.451,91.11,61.065Z" transform="translate(-83.272 -57.008)" fill="#976f12"/>
        <path id="패스_224" data-name="패스 224" d="M88.358,59.169s-.856-.14-.453-1.075C87.9,58.094,88.842,58.41,88.358,59.169Z" transform="translate(-80.596 -55.125)" fill="#976f12"/>
        <path id="패스_225" data-name="패스 225" d="M93.467,54.514s-.191-.846.826-.823C94.292,53.691,94.351,54.678,93.467,54.514Z" transform="translate(-85.163 -51.569)" fill="#976f12"/>
        <path id="패스_226" data-name="패스 226" d="M90.053,54.134s-.863.084-.714-.922C89.339,53.212,90.326,53.277,90.053,54.134Z" transform="translate(-81.828 -51.183)" fill="#976f12"/>
        <path id="패스_227" data-name="패스 227" d="M94.292,48.213s-.4-.768.587-1.008C94.879,47.205,95.189,48.144,94.292,48.213Z" transform="translate(-85.776 -46.332)" fill="#976f12"/>
        <path id="패스_228" data-name="패스 228" d="M91.5,43.719s-.861-.1-.5-1.052C90.993,42.667,91.944,42.94,91.5,43.719Z" transform="translate(-83.107 -42.667)" fill="#976f12"/>
        <path id="패스_229" data-name="패스 229" d="M90.36,49.537s-.812.3-.927-.707C89.433,48.83,90.4,48.639,90.36,49.537Z" transform="translate(-81.917 -47.63)" fill="#976f12"/>
        <path id="패스_230" data-name="패스 230" d="M65.756,73.554s-.6-.627-1.142.234C64.614,73.788,65.4,74.382,65.756,73.554Z" transform="translate(-61.874 -67.432)" fill="#976f12"/>
        <path id="패스_231" data-name="패스 231" d="M68.649,69.525s.547-.673-.374-1.1C68.274,68.421,67.783,69.279,68.649,69.525Z" transform="translate(-64.718 -63.465)" fill="#976f12"/>
        <path id="패스_232" data-name="패스 232" d="M60.372,70.846s-.513-.7-1.163.083C59.209,70.93,59.915,71.622,60.372,70.846Z" transform="translate(-57.509 -65.192)" fill="#976f12"/>
        <path id="패스_233" data-name="패스 233" d="M63.709,66.97s.63-.6-.227-1.144C63.481,65.826,62.883,66.613,63.709,66.97Z" transform="translate(-60.79 -61.369)" fill="#976f12"/>
        <path id="패스_234" data-name="패스 234" d="M55.513,66.685s-.275-.822-1.133-.275C54.38,66.41,54.842,67.285,55.513,66.685Z" transform="translate(-53.61 -61.69)" fill="#976f12"/>
        <path id="패스_235" data-name="패스 235" d="M59.5,63.584s.781-.375.131-1.158C59.627,62.426,58.817,62.994,59.5,63.584Z" transform="translate(-57.522 -58.624)" fill="#976f12"/>
        <path id="패스_236" data-name="패스 236" d="M52.979,61.065s-.032-.867-1.01-.583C51.969,60.482,52.166,61.451,52.979,61.065Z" transform="translate(-51.663 -57.008)" fill="#976f12"/>
        <path id="패스_237" data-name="패스 237" d="M57.033,59.169s.856-.14.453-1.075C57.486,58.094,56.549,58.41,57.033,59.169Z" transform="translate(-55.64 -55.125)" fill="#976f12"/>
        <path id="패스_238" data-name="패스 238" d="M51.331,54.514s.191-.846-.826-.823C50.506,53.691,50.447,54.678,51.331,54.514Z" transform="translate(-50.48 -51.569)" fill="#976f12"/>
        <path id="패스_239" data-name="패스 239" d="M55,54.134s.863.084.714-.922C55.719,53.212,54.732,53.277,55,54.134Z" transform="translate(-54.076 -51.183)" fill="#976f12"/>
        <path id="패스_240" data-name="패스 240" d="M51.015,48.213s.4-.768-.587-1.008C50.428,47.205,50.118,48.144,51.015,48.213Z" transform="translate(-50.376 -46.332)" fill="#976f12"/>
        <path id="패스_241" data-name="패스 241" d="M53.852,43.719s.861-.1.5-1.052C54.353,42.667,53.4,42.94,53.852,43.719Z" transform="translate(-53.085 -42.667)" fill="#976f12"/>
        <path id="패스_242" data-name="패스 242" d="M54.071,49.537s.812.3.927-.707C55,48.83,54.027,48.639,54.071,49.537Z" transform="translate(-53.359 -47.63)" fill="#976f12"/>
      </g>
      <path id="패스_243" data-name="패스 243" d="M50.366,34.627" transform="translate(-9.089 -7.204)" fill="#ffde39"/>
      <path id="패스_244" data-name="패스 244" d="M39.111,25.707,39.55,36.72s0,1.4,6.3,5.283v0l0,0,0,0v0c6.3-3.881,6.3-5.283,6.3-5.283L52.6,25.707Z" fill="none" stroke="#465266" stroke-linejoin="round" stroke-miterlimit="10" stroke-width="0.5"/>
    </g>
  </g>
</svg>
