<svg xmlns="http://www.w3.org/2000/svg" width="29.314" height="29.574" viewBox="0 0 29.314 29.574">
  <g id="icon" transform="translate(-1755.1 -6713.442)">
    <path id="패스_177" data-name="패스 177" d="M1882.952,6743.017h-12.976a1.379,1.379,0,0,1-1.377-1.377v-24.693a1.373,1.373,0,0,1,.948-1.309l6.488-2.126a1.368,1.368,0,0,1,.857,0l6.488,2.126a1.373,1.373,0,0,1,.948,1.309v24.693A1.378,1.378,0,0,1,1882.952,6743.017Zm-6.488-28.855a.646.646,0,0,0-.205.033l-6.488,2.126a.658.658,0,0,0-.453.626v24.693a.658.658,0,0,0,.658.657h12.976a.658.658,0,0,0,.658-.657v-24.693a.658.658,0,0,0-.453-.626l-6.488-2.126A.643.643,0,0,0,1876.465,6714.161Z" transform="translate(-106.707 0)" fill="#465266"/>
    <path id="패스_178" data-name="패스 178" d="M1931.459,6822.474a.359.359,0,0,1-.359-.359v-2.095a.359.359,0,0,1,.718,0v2.095A.359.359,0,0,1,1931.459,6822.474Z" transform="translate(-165.467 -99.862)" fill="#976f12"/>
    <path id="패스_179" data-name="패스 179" d="M1994.359,6822.474a.359.359,0,0,1-.359-.359v-2.095a.359.359,0,0,1,.718,0v2.095A.358.358,0,0,1,1994.359,6822.474Z" transform="translate(-224.602 -99.862)" fill="#976f12"/>
    <path id="패스_180" data-name="패스 180" d="M2057.259,6822.474a.359.359,0,0,1-.359-.359v-2.095a.359.359,0,0,1,.718,0v2.095A.359.359,0,0,1,2057.259,6822.474Z" transform="translate(-283.737 -99.862)" fill="#976f12"/>
    <path id="패스_181" data-name="패스 181" d="M1931.459,6902.474a.359.359,0,0,1-.359-.359v-2.094a.359.359,0,1,1,.718,0v2.094A.359.359,0,0,1,1931.459,6902.474Z" transform="translate(-165.467 -175.073)" fill="#976f12"/>
    <path id="패스_182" data-name="패스 182" d="M1994.359,6902.474a.359.359,0,0,1-.359-.359v-2.094a.359.359,0,1,1,.718,0v2.094A.358.358,0,0,1,1994.359,6902.474Z" transform="translate(-224.602 -175.073)" fill="#976f12"/>
    <path id="패스_183" data-name="패스 183" d="M2057.259,6902.474a.359.359,0,0,1-.359-.359v-2.094a.359.359,0,1,1,.718,0v2.094A.359.359,0,0,1,2057.259,6902.474Z" transform="translate(-283.737 -175.073)" fill="#976f12"/>
    <path id="패스_184" data-name="패스 184" d="M1931.459,6982.474a.359.359,0,0,1-.359-.359v-2.095a.359.359,0,0,1,.718,0v2.095A.359.359,0,0,1,1931.459,6982.474Z" transform="translate(-165.467 -250.287)" fill="#976f12"/>
    <path id="패스_185" data-name="패스 185" d="M1994.359,6982.474a.359.359,0,0,1-.359-.359v-2.095a.359.359,0,0,1,.718,0v2.095A.358.358,0,0,1,1994.359,6982.474Z" transform="translate(-224.602 -250.287)" fill="#976f12"/>
    <path id="패스_186" data-name="패스 186" d="M2057.259,6982.474a.359.359,0,0,1-.359-.359v-2.095a.359.359,0,0,1,.718,0v2.095A.359.359,0,0,1,2057.259,6982.474Z" transform="translate(-283.737 -250.287)" fill="#976f12"/>
    <path id="패스_187" data-name="패스 187" d="M1960.331,7068.513h-2.454a1.379,1.379,0,0,1-1.376-1.377v-6.1a1.378,1.378,0,0,1,1.376-1.376h2.454a1.378,1.378,0,0,1,1.376,1.376v6.1A1.379,1.379,0,0,1,1960.331,7068.513Zm-2.454-8.135a.66.66,0,0,0-.658.658v6.1a.659.659,0,0,0,.658.658h2.454a.659.659,0,0,0,.658-.658v-6.1a.66.66,0,0,0-.658-.658Z" transform="translate(-189.346 -325.497)" fill="#976f12"/>
    <path id="패스_188" data-name="패스 188" d="M1763.269,6856.979h-6.793a1.378,1.378,0,0,1-1.377-1.376v-19.565a1.379,1.379,0,0,1,1.377-1.377h5.775v.719h-5.775a.659.659,0,0,0-.659.658V6855.6a.659.659,0,0,0,.659.658h6.793Z" transform="translate(0 -113.963)" fill="#465266"/>
    <path id="패스_189" data-name="패스 189" d="M1822.059,6912.974a.359.359,0,0,1-.359-.359v-2.093a.359.359,0,1,1,.719,0v2.093A.359.359,0,0,1,1822.059,6912.974Z" transform="translate(-62.614 -184.945)" fill="#465266"/>
    <path id="패스_190" data-name="패스 190" d="M1822.059,6992.968a.359.359,0,0,1-.359-.359v-2.089a.359.359,0,0,1,.719,0v2.089A.359.359,0,0,1,1822.059,6992.968Z" transform="translate(-62.614 -260.157)" fill="#465266"/>
    <path id="패스_191" data-name="패스 191" d="M1822.059,7072.875a.359.359,0,0,1-.359-.359v-2.094a.359.359,0,0,1,.719,0v2.094A.359.359,0,0,1,1822.059,7072.875Z" transform="translate(-62.614 -335.277)" fill="#465266"/>
    <path id="패스_192" data-name="패스 192" d="M2115.193,6856.979H2108.4v-.718h6.793a.659.659,0,0,0,.658-.658v-19.565a.659.659,0,0,0-.658-.658h-5.776v-.719h5.776a1.379,1.379,0,0,1,1.376,1.377V6855.6A1.378,1.378,0,0,1,2115.193,6856.979Z" transform="translate(-332.155 -113.963)" fill="#465266"/>
    <path id="패스_193" data-name="패스 193" d="M2166.659,6912.974a.359.359,0,0,1-.359-.359v-2.093a.359.359,0,1,1,.719,0v2.093A.359.359,0,0,1,2166.659,6912.974Z" transform="translate(-386.59 -184.945)" fill="#465266"/>
    <path id="패스_194" data-name="패스 194" d="M2166.659,6992.968a.359.359,0,0,1-.359-.359v-2.089a.359.359,0,0,1,.719,0v2.089A.359.359,0,0,1,2166.659,6992.968Z" transform="translate(-386.59 -260.157)" fill="#465266"/>
    <path id="패스_195" data-name="패스 195" d="M2166.659,7072.875a.359.359,0,0,1-.359-.359v-2.094a.359.359,0,0,1,.719,0v2.094A.359.359,0,0,1,2166.659,7072.875Z" transform="translate(-386.59 -335.277)" fill="#465266"/>
  </g>
</svg>
