<svg xmlns="http://www.w3.org/2000/svg" width="22" height="29.934" viewBox="0 0 22 29.934">
  <g id="그룹_2671" data-name="그룹 2671" transform="translate(-382.803 -1807.002)">
    <path id="패스_200" data-name="패스 200" d="M403.42,1836.936H384.186a1.384,1.384,0,0,1-1.383-1.383v-23.5a.361.361,0,0,1,.106-.255l4.689-4.688a.36.36,0,0,1,.255-.106H403.42a1.384,1.384,0,0,1,1.383,1.382v27.169A1.384,1.384,0,0,1,403.42,1836.936Zm-19.9-24.736v23.353a.662.662,0,0,0,.661.661H403.42a.662.662,0,0,0,.661-.661v-27.169a.662.662,0,0,0-.661-.661H388Z" fill="#465266"/>
    <path id="패스_201" data-name="패스 201" d="M386.978,1812.412h-3.815a.361.361,0,1,1,0-.721h3.815a.662.662,0,0,0,.661-.661v-3.667a.361.361,0,0,1,.721,0v3.667A1.384,1.384,0,0,1,386.978,1812.412Z" fill="#465266"/>
    <path id="패스_202" data-name="패스 202" d="M519.234,2058.111a.361.361,0,0,1-.255-.105l-7.523-7.523a.36.36,0,0,1-.1-.229l-.212-2.933a.36.36,0,0,1,.386-.386l2.933.213a.361.361,0,0,1,.229.1l7.523,7.523a.361.361,0,0,1,0,.51l-2.72,2.72A.361.361,0,0,1,519.234,2058.111Zm-7.173-8.044,7.173,7.174,2.21-2.21-7.173-7.173-2.383-.173Z" transform="translate(-120.62 -225.51)" fill="#976f12"/>
    <path id="패스_203" data-name="패스 203" d="M555.153,2091.309a.359.359,0,0,1-.255-.106l-6.885-6.885a.361.361,0,0,1,.51-.51l6.886,6.885a.361.361,0,0,1-.255.616Z" transform="translate(-155.179 -260.068)" fill="#976f12"/>
    <path id="패스_204" data-name="패스 204" d="M466.779,1921.842H454.019a.361.361,0,0,1,0-.721h12.761a.361.361,0,0,1,0,.721Z" transform="translate(-66.596 -107.259)" fill="#465266"/>
    <path id="패스_205" data-name="패스 205" d="M466.779,1989.117H454.019a.361.361,0,1,1,0-.721h12.761a.361.361,0,1,1,0,.721Z" transform="translate(-66.596 -170.49)" fill="#465266"/>
    <path id="패스_206" data-name="패스 206" d="M609.2,2056.392h-3.653a.36.36,0,1,1,0-.721H609.2a.36.36,0,1,1,0,.721Z" transform="translate(-209.013 -233.722)" fill="#465266"/>
    <path id="패스_207" data-name="패스 207" d="M456,2056.392h-1.982a.36.36,0,1,1,0-.721H456a.36.36,0,1,1,0,.721Z" transform="translate(-66.596 -233.722)" fill="#465266"/>
    <path id="패스_208" data-name="패스 208" d="M456.916,2123.667h-2.9a.36.36,0,1,1,0-.721h2.9a.36.36,0,1,1,0,.721Z" transform="translate(-66.596 -296.953)" fill="#465266"/>
    <path id="패스_209" data-name="패스 209" d="M459.786,2190.943h-5.767a.361.361,0,1,1,0-.721h5.767a.361.361,0,1,1,0,.721Z" transform="translate(-66.596 -360.185)" fill="#465266"/>
  </g>
</svg>
