<svg xmlns="http://www.w3.org/2000/svg" width="27.334" height="29.757" viewBox="0 0 27.334 29.757">
  <g id="그룹_2675" data-name="그룹 2675" transform="translate(-3227.367 -1790.586)">
    <g id="그룹_2673" data-name="그룹 2673" transform="translate(3227.367 1790.586)">
      <path id="패스_213" data-name="패스 213" d="M3292.849,1953.3h-4.072a.911.911,0,0,1-.91-.91v-15.006a.911.911,0,0,1,.91-.91h4.072a.911.911,0,0,1,.91.91v15.006A.911.911,0,0,1,3292.849,1953.3Zm-4.072-16.1a.181.181,0,0,0-.181.181v15.006a.181.181,0,0,0,.181.181h4.072a.181.181,0,0,0,.181-.181v-15.006a.181.181,0,0,0-.181-.181Z" transform="translate(-3284.192 -1927.614)" fill="#465266"/>
      <path id="패스_214" data-name="패스 214" d="M3290.68,1797.69a2.673,2.673,0,0,1-2.808-2.556c0-.031,0-.062,0-.092.018-1.743,1.459-3.381,2.317-4.2a.907.907,0,0,1,1.259,0c.857.821,2.3,2.459,2.316,4.2a.844.844,0,0,1,0,.092,2.691,2.691,0,0,1-2.937,2.553h-.012C3290.767,1797.689,3290.724,1797.69,3290.68,1797.69Zm.134-6.374a.181.181,0,0,0-.125.05c-.623.6-2.075,2.152-2.092,3.683a.213.213,0,0,0,0,.025,1.969,1.969,0,0,0,2.177,1.885c.026,0,.052,0,.078,0h0a1.969,1.969,0,0,0,2.177-1.885c0-.008,0-.016,0-.024-.016-1.531-1.468-3.086-2.092-3.683A.181.181,0,0,0,3290.814,1791.316Z" transform="translate(-3284.194 -1790.586)" fill="#976f12"/>
      <rect id="사각형_1858" data-name="사각형 1858" width="13.242" height="0.729" transform="translate(0 24.958)" fill="#465266"/>
      <rect id="사각형_1859" data-name="사각형 1859" width="8.382" height="0.729" transform="translate(2.43 29.028)" fill="#465266"/>
      <rect id="사각형_1860" data-name="사각형 1860" width="0.729" height="4.07" transform="translate(6.256 25.322)" fill="#465266"/>
    </g>
    <g id="그룹_2674" data-name="그룹 2674" transform="translate(3241.459 1793.624)">
      <path id="패스_215" data-name="패스 215" d="M3524.849,2000.264h-4.072a.911.911,0,0,1-.91-.91v-11.969a.911.911,0,0,1,.91-.91h4.072a.911.911,0,0,1,.91.91v11.969A.911.911,0,0,1,3524.849,2000.264Zm-4.072-13.059a.182.182,0,0,0-.181.181v11.969a.182.182,0,0,0,.181.181h4.072a.181.181,0,0,0,.181-.181v-11.969a.181.181,0,0,0-.181-.181Z" transform="translate(-3516.192 -1977.615)" fill="#465266"/>
      <path id="패스_216" data-name="패스 216" d="M3522.68,1847.69a2.674,2.674,0,0,1-2.808-2.556c0-.031,0-.062,0-.092.018-1.743,1.459-3.381,2.316-4.2a.907.907,0,0,1,1.258,0c.857.821,2.3,2.459,2.317,4.2,0,.03,0,.061,0,.093a2.691,2.691,0,0,1-2.936,2.553h-.012C3522.767,1847.689,3522.724,1847.69,3522.68,1847.69Zm.134-6.374a.179.179,0,0,0-.125.05c-.624.6-2.076,2.152-2.092,3.683a.169.169,0,0,0,0,.025,1.97,1.97,0,0,0,2.177,1.885c.027,0,.052,0,.078,0h0a1.969,1.969,0,0,0,2.177-1.885.2.2,0,0,0,0-.024c-.016-1.531-1.469-3.086-2.092-3.683A.18.18,0,0,0,3522.814,1841.316Z" transform="translate(-3516.194 -1840.586)" fill="#976f12"/>
      <rect id="사각형_1861" data-name="사각형 1861" width="13.242" height="0.729" transform="translate(0 21.921)" fill="#465266"/>
      <rect id="사각형_1862" data-name="사각형 1862" width="8.382" height="0.729" transform="translate(2.43 25.991)" fill="#465266"/>
      <rect id="사각형_1863" data-name="사각형 1863" width="0.729" height="4.07" transform="translate(6.256 22.285)" fill="#465266"/>
    </g>
  </g>
</svg>
