<svg xmlns="http://www.w3.org/2000/svg" width="30" height="30" viewBox="0 0 30 30">
  <g id="그룹_2885" data-name="그룹 2885" transform="translate(-15 -231)">
    <g id="타원_42" data-name="타원 42" transform="translate(15 231)" fill="#fff" stroke="#a7915f" stroke-width="1">
      <circle cx="15" cy="15" r="15" stroke="none"/>
      <circle cx="15" cy="15" r="14.5" fill="none"/>
    </g>
    <g id="그룹_2667" data-name="그룹 2667" transform="translate(-305.003 -2278.854)">
      <path id="패스_172" data-name="패스 172" d="M568.711,2662.56a.186.186,0,0,1-.186-.186v-2.049a.186.186,0,0,1,.372,0v2.049A.186.186,0,0,1,568.711,2662.56Z" transform="translate(-234.032 -137.872)" fill="#976f12"/>
      <path id="패스_173" data-name="패스 173" d="M623.711,2874.9a.186.186,0,0,1-.186-.186v-1.333a.186.186,0,1,1,.372,0v1.333A.186.186,0,0,1,623.711,2874.9Z" transform="translate(-287.326 -344.325)" fill="#976f12"/>
      <path id="패스_174" data-name="패스 174" d="M662.711,2874.9a.186.186,0,0,1-.186-.186v-1.333a.186.186,0,1,1,.372,0v1.333A.186.186,0,0,1,662.711,2874.9Z" transform="translate(-325.117 -344.325)" fill="#976f12"/>
      <path id="패스_175" data-name="패스 175" d="M701.711,2874.9a.186.186,0,0,1-.186-.186v-1.333a.186.186,0,1,1,.372,0v1.333A.186.186,0,0,1,701.711,2874.9Z" transform="translate(-362.907 -344.325)" fill="#976f12"/>
      <path id="패스_176" data-name="패스 176" d="M400.946,2663.971H390.938a.714.714,0,0,1-.713-.713v-8.345a.714.714,0,0,1,.713-.713h10.008a.714.714,0,0,1,.713.713v8.345A.714.714,0,0,1,400.946,2663.971Zm-10.008-9.4a.341.341,0,0,0-.341.341v8.345a.341.341,0,0,0,.341.341h10.008a.341.341,0,0,0,.341-.341v-8.345a.341.341,0,0,0-.341-.341Z" transform="translate(-61.261 -132.116)" fill="#465266"/>
      <rect id="사각형_1856" data-name="사각형 1856" width="0.372" height="5.054" transform="matrix(0.92, -0.391, 0.391, 0.92, 327.003, 2518)" fill="#5a5a5a"/>
      <rect id="사각형_1857" data-name="사각형 1857" width="5.054" height="0.372" transform="translate(340.04 2522.506) rotate(-66.991)" fill="#465266"/>
    </g>
  </g>
</svg>
