<svg xmlns="http://www.w3.org/2000/svg" width="34.075" height="29.98" viewBox="0 0 34.075 29.98">
  <g id="그룹_2665" data-name="그룹 2665" transform="translate(-327.875 -4617.801)">
    <path id="패스_156" data-name="패스 156" d="M389.331,4943.113a3.956,3.956,0,1,1,3.956-3.957A3.961,3.961,0,0,1,389.331,4943.113Zm0-7.078a3.122,3.122,0,1,0,3.122,3.122A3.125,3.125,0,0,0,389.331,4936.035Z" transform="translate(-53.502 -295.332)" fill="#465266"/>
    <circle id="타원_26" data-name="타원 26" cx="1.342" cy="1.342" r="1.342" transform="translate(334.487 4642.483)" fill="#5a5a5a"/>
    <path id="패스_157" data-name="패스 157" d="M656.331,4943.113a3.956,3.956,0,1,1,3.956-3.957A3.961,3.961,0,0,1,656.331,4943.113Zm0-7.078a3.122,3.122,0,1,0,3.122,3.122A3.125,3.125,0,0,0,656.331,4936.035Z" transform="translate(-301.938 -295.332)" fill="#465266"/>
    <circle id="타원_27" data-name="타원 27" cx="1.342" cy="1.342" r="1.342" transform="translate(353.051 4642.483)" fill="#5a5a5a"/>
    <path id="패스_158" data-name="패스 158" d="M360.351,4723.152h-.006l-2.415-.01,0-.834,2.415.01a.77.77,0,0,0,.543-.223.759.759,0,0,0,.225-.542v-8.14a.765.765,0,0,0-.045-.259l-3.348-9.314a.766.766,0,0,0-.72-.506h-7.63v10.29H328.709v7.831a.766.766,0,0,0,.763.765l2.818,0v.834l-2.818-.005a1.6,1.6,0,0,1-1.6-1.6v-8.666h20.663V4702.5H357a1.6,1.6,0,0,1,1.5,1.059l3.348,9.313a1.6,1.6,0,0,1,.094.542v8.14a1.6,1.6,0,0,1-1.6,1.6Z" transform="translate(0 -78.81)" fill="#465266"/>
    <rect id="사각형_1854" data-name="사각형 1854" width="0.834" height="11.486" transform="matrix(0.002, -1, 1, 0.002, 339.367, 4644.277)" fill="#5a5a5a"/>
    <path id="패스_159" data-name="패스 159" d="M349.373,4634.807h-21.5V4619.4a1.6,1.6,0,0,1,1.6-1.6h18.3a1.6,1.6,0,0,1,1.6,1.6Zm-20.663-.834h19.829V4619.4a.766.766,0,0,0-.765-.765h-18.3a.766.766,0,0,0-.765.765Z" fill="#465266"/>
    <rect id="사각형_1855" data-name="사각형 1855" width="10.13" height="0.834" transform="translate(351.632 4633.98)" fill="#465266"/>
    <path id="패스_160" data-name="패스 160" d="M389.384,4679.734H374.992a.417.417,0,1,1,0-.834h14.392a.417.417,0,1,1,0,.834Z" transform="translate(-43.453 -56.851)" fill="#976f12"/>
    <path id="패스_161" data-name="패스 161" d="M389.384,4730.635H374.992a.417.417,0,1,1,0-.834h14.392a.417.417,0,1,1,0,.834Z" transform="translate(-43.453 -104.213)" fill="#976f12"/>
    <path id="패스_162" data-name="패스 162" d="M389.384,4781.635H374.992a.417.417,0,1,1,0-.834h14.392a.417.417,0,1,1,0,.834Z" transform="translate(-43.453 -151.667)" fill="#976f12"/>
  </g>
</svg>
