<svg xmlns="http://www.w3.org/2000/svg" width="32.882" height="29.98" viewBox="0 0 32.882 29.98">
  <g id="그룹_2667" data-name="그룹 2667" transform="translate(-327.003 -2517.854)">
    <path id="패스_172" data-name="패스 172" d="M568.924,2665.323a.4.4,0,0,1-.4-.4v-4.387a.4.4,0,0,1,.8,0v4.387A.4.4,0,0,1,568.924,2665.323Z" transform="translate(-225.483 -132.835)" fill="#976f12"/>
    <path id="패스_173" data-name="패스 173" d="M623.923,2876.851a.4.4,0,0,1-.4-.4V2873.6a.4.4,0,0,1,.8,0v2.855A.4.4,0,0,1,623.923,2876.851Z" transform="translate(-276.83 -331.746)" fill="#976f12"/>
    <path id="패스_174" data-name="패스 174" d="M662.923,2876.851a.4.4,0,0,1-.4-.4V2873.6a.4.4,0,0,1,.8,0v2.855A.4.4,0,0,1,662.923,2876.851Z" transform="translate(-313.24 -331.746)" fill="#976f12"/>
    <path id="패스_175" data-name="패스 175" d="M701.923,2876.851a.4.4,0,0,1-.4-.4V2873.6a.4.4,0,1,1,.8,0v2.855A.4.4,0,0,1,701.923,2876.851Z" transform="translate(-349.65 -331.746)" fill="#976f12"/>
    <path id="패스_176" data-name="패스 176" d="M413.183,2675.124h-21.43a1.529,1.529,0,0,1-1.527-1.527v-17.871a1.529,1.529,0,0,1,1.527-1.527h21.43a1.529,1.529,0,0,1,1.527,1.527V2673.6A1.529,1.529,0,0,1,413.183,2675.124ZM391.752,2655a.731.731,0,0,0-.731.73V2673.6a.731.731,0,0,0,.731.73h21.43a.731.731,0,0,0,.731-.73v-17.871a.731.731,0,0,0-.731-.73Z" transform="translate(-59.024 -127.29)" fill="#465266"/>
    <rect id="사각형_1856" data-name="사각형 1856" width="0.797" height="10.822" transform="matrix(0.92, -0.391, 0.391, 0.92, 327.003, 2518.166)" fill="#5a5a5a"/>
    <rect id="사각형_1857" data-name="사각형 1857" width="10.822" height="0.797" transform="translate(354.921 2527.815) rotate(-66.991)" fill="#465266"/>
  </g>
</svg>
