<svg xmlns="http://www.w3.org/2000/svg" width="28.94" height="30.816" viewBox="0 0 28.94 30.816">
  <g id="그룹_2702" data-name="그룹 2702" transform="translate(-54.826 -80.146)">
    <g id="그룹_2688" data-name="그룹 2688" transform="translate(56.54 80.25)">
      <path id="패스_253" data-name="패스 253" d="M61.256,89.786a.292.292,0,0,1-.268-.178c-2.432-5.737,4.476-9.292,4.547-9.328a.291.291,0,0,1,.421.24c.123,1.751,4.251,2.849,5.832,3.124a3,3,0,0,1,2.706,3.389v2.438a.291.291,0,0,1-.582,0V87.013c.008-.125.152-2.589-2.2-2.791-.259-.044-5.5-.983-6.253-3.237-1.321.763-5.883,3.8-3.935,8.4a.291.291,0,0,1-.268.4Z" transform="translate(-60.47 -80.25)" fill="#465266" stroke="#465266" stroke-width="0.2"/>
    </g>
    <g id="그룹_2689" data-name="그룹 2689" transform="translate(54.926 100.114)">
      <path id="패스_254" data-name="패스 254" d="M72.886,154.334a4.928,4.928,0,0,0-5.009-4.843H60.934a4.927,4.927,0,0,0-5.008,4.843v5.323h16.96Z" transform="translate(-55.635 -149.2)" fill="#fff"/>
      <path id="패스_255" data-name="패스 255" d="M72.177,159.24H55.217a.291.291,0,0,1-.291-.291v-5.323a5.224,5.224,0,0,1,5.3-5.134h6.944a5.225,5.225,0,0,1,5.3,5.134v5.323A.291.291,0,0,1,72.177,159.24Zm-16.669-.582H71.886v-5.032a4.642,4.642,0,0,0-4.718-4.552H60.225a4.642,4.642,0,0,0-4.717,4.552Z" transform="translate(-54.926 -148.491)" fill="#465266" stroke="#465266" stroke-width="0.2"/>
    </g>
    <g id="그룹_2690" data-name="그룹 2690" transform="translate(61.467 99.18)">
      <path id="패스_256" data-name="패스 256" d="M82.376,146.345v1.215a1.824,1.824,0,0,1-1.99,1.589h0a1.823,1.823,0,0,1-1.989-1.589v-1.277" transform="translate(-78.106 -145.993)" fill="#fff"/>
      <path id="패스_257" data-name="패스 257" d="M79.677,148.732a2.112,2.112,0,0,1-2.28-1.88v-1.277a.291.291,0,0,1,.582,0v1.277a1.76,1.76,0,0,0,3.4,0v-1.215a.291.291,0,1,1,.582,0v1.215A2.113,2.113,0,0,1,79.677,148.732Z" transform="translate(-77.397 -145.284)" fill="#1e1e1e"/>
    </g>
    <g id="그룹_2691" data-name="그룹 2691" transform="translate(68.371 91.102)">
      <path id="패스_258" data-name="패스 258" d="M105.734,120.686a1.81,1.81,0,0,1-1.81,1.81h0a1.81,1.81,0,0,1-1.811-1.81v-.345a1.81,1.81,0,0,1,1.811-1.81h0a1.811,1.811,0,0,1,1.81,1.81Z" transform="translate(-101.822 -118.239)" fill="#fff" stroke="#465266" stroke-width="0.2"/>
      <path id="패스_259" data-name="패스 259" d="M103.215,122.078a2.1,2.1,0,0,1-2.1-2.1v-.345a2.1,2.1,0,0,1,4.2,0v.345A2.1,2.1,0,0,1,103.215,122.078Zm0-3.966a1.521,1.521,0,0,0-1.52,1.519v.345a1.519,1.519,0,0,0,3.039,0v-.345A1.521,1.521,0,0,0,103.215,118.112Z" transform="translate(-101.113 -117.53)" fill="#465266" stroke="#465266" stroke-width="0.2"/>
    </g>
    <g id="그룹_2692" data-name="그룹 2692" transform="translate(55.222 91.102)">
      <path id="패스_260" data-name="패스 260" d="M56.944,120.686a1.81,1.81,0,0,0,1.81,1.81h0a1.81,1.81,0,0,0,1.811-1.81v-.345a1.811,1.811,0,0,0-1.811-1.81h0a1.811,1.811,0,0,0-1.81,1.81Z" transform="translate(-56.653 -118.239)" fill="#fff" stroke="#465266" stroke-width="0.1"/>
      <path id="패스_261" data-name="패스 261" d="M58.045,122.078a2.1,2.1,0,0,1-2.1-2.1v-.345a2.1,2.1,0,0,1,4.2,0v.345A2.1,2.1,0,0,1,58.045,122.078Zm0-3.966a1.521,1.521,0,0,0-1.519,1.519v.345a1.519,1.519,0,0,0,3.039,0v-.345A1.521,1.521,0,0,0,58.045,118.112Z" transform="translate(-55.944 -117.53)" fill="#465266" stroke="#465266" stroke-width="0.1"/>
    </g>
    <g id="그룹_2693" data-name="그룹 2693" transform="translate(57.15 86.682)">
      <path id="패스_262" data-name="패스 262" d="M71.276,103.478c1.556-.531,3.984.607,5.089,2.353,0,.3,0,.448,0,.483v3.334a6.4,6.4,0,0,1-12.8,0v-3.818A15.308,15.308,0,0,0,71.276,103.478Z" transform="translate(-63.276 -103.056)" fill="#fff"/>
      <path id="패스_263" data-name="패스 263" d="M69.26,115.631a6.7,6.7,0,0,1-6.693-6.692v-3.818a.291.291,0,0,1,.088-.208.262.262,0,0,1,.21-.083h.05a15.218,15.218,0,0,0,7.5-2.309.289.289,0,0,1,.06-.028,2.913,2.913,0,0,1,.942-.147,5.836,5.836,0,0,1,4.487,2.619.29.29,0,0,1,.045.156c0,.224,0,.36,0,.43v3.388A6.7,6.7,0,0,1,69.26,115.631Zm-6.111-10.222v3.531a6.11,6.11,0,0,0,12.219,0v-3.379c0-.062,0-.175,0-.353a5.207,5.207,0,0,0-3.95-2.279,2.352,2.352,0,0,0-.723.106A16.052,16.052,0,0,1,63.149,105.409Z" transform="translate(-62.567 -102.347)" fill="#465266" stroke="#465266" stroke-width="0.2"/>
    </g>
    <g id="그룹_2694" data-name="그룹 2694" transform="translate(62.368 102.227)">
      <path id="패스_268" data-name="패스 268" d="M80.944,155.751h1.832l.519.979-.691,1.306H81.137l-.646-1.4Z" transform="translate(-80.491 -155.751)" fill="#976f12"/>
    </g>
    <g id="그룹_2695" data-name="그룹 2695" transform="translate(63.542 99.269)">
      <path id="패스_269" data-name="패스 269" d="M87.856,146.588l-2.331,2.536,1.8,2.377,2.185-3.856Z" transform="translate(-85.234 -146.297)" fill="#fff"/>
      <path id="패스_270" data-name="패스 270" d="M86.613,151.084a.291.291,0,0,1-.232-.116l-1.8-2.377a.291.291,0,0,1,.018-.372l2.33-2.536a.292.292,0,0,1,.371-.048l1.652,1.057a.291.291,0,0,1,.1.389l-2.186,3.856a.292.292,0,0,1-.234.147Zm-1.418-2.65,1.383,1.83,1.831-3.231-1.214-.776Z" transform="translate(-84.525 -145.589)" fill="#465266" stroke="#465266" stroke-width="0.2"/>
    </g>
    <g id="그룹_2696" data-name="그룹 2696" transform="translate(59.416 99.269)">
      <path id="패스_271" data-name="패스 271" d="M73,146.588l2.331,2.536-1.8,2.377-2.184-3.856Z" transform="translate(-71.061 -146.297)" fill="#fff"/>
      <path id="패스_272" data-name="패스 272" d="M72.827,151.084h-.019a.292.292,0,0,1-.234-.147L70.39,147.08a.291.291,0,0,1,.1-.389l1.651-1.057a.291.291,0,0,1,.371.048l2.331,2.536a.291.291,0,0,1,.018.372l-1.8,2.377A.291.291,0,0,1,72.827,151.084Zm-1.8-4.051,1.83,3.231,1.384-1.83-2-2.177Z" transform="translate(-70.352 -145.589)" fill="#465266" stroke="#434f62" stroke-width="0.2"/>
    </g>
    <g id="그룹_2697" data-name="그룹 2697" transform="translate(62.325 104.642)">
      <path id="패스_273" data-name="패스 273" d="M81.076,164.045h1.465l.561,3.369-1.293,2.217-1.465-2.239Z" transform="translate(-80.344 -164.045)" fill="#976f12"/>
    </g>
    <g id="그룹_2699" data-name="그룹 2699" transform="translate(72.478 96.631)">
      <g id="그룹_2698" data-name="그룹 2698" transform="translate(0 0)">
        <rect id="사각형_1896" data-name="사각형 1896" width="9.677" height="12.562" transform="translate(0.253 0.253)" fill="#fff"/>
        <path id="패스_274" data-name="패스 274" d="M119.159,145.855h-9.677a.253.253,0,0,1-.253-.253V133.041a.252.252,0,0,1,.253-.253h9.677a.252.252,0,0,1,.253.253V145.6A.253.253,0,0,1,119.159,145.855Zm-9.425-.505h9.172V133.293h-9.172Z" transform="translate(-109.229 -132.788)" fill="#465266" stroke="#465266" stroke-width="0.2"/>
      </g>
    </g>
    <g id="그룹_2700" data-name="그룹 2700" transform="translate(70.897 100.5)">
      <path id="패스_275" data-name="패스 275" d="M112.025,148.042h-7.174V148a.72.72,0,0,0-.774-.649h-2.4a.72.72,0,0,0-.774.649v.535a.558.558,0,0,0-.026.158v6.624a.72.72,0,0,0,.775.649h10.373a.72.72,0,0,0,.774-.649v-6.624A.72.72,0,0,0,112.025,148.042Z" transform="translate(-100.614 -147.085)" fill="#fff"/>
      <path id="패스_276" data-name="패스 276" d="M111.646,155.674H100.88a1,1,0,0,1-1-1v-6.536a.972.972,0,0,1,.025-.21v-.576a1,1,0,0,1,1-1h2.285a1,1,0,0,1,.978.786h7.479a1,1,0,0,1,1,1v6.536A1,1,0,0,1,111.646,155.674Zm-10.742-8.8a.473.473,0,0,0-.473.473v.607a.265.265,0,0,1-.008.064.472.472,0,0,0-.017.115v6.536a.473.473,0,0,0,.473.473h10.766a.473.473,0,0,0,.473-.473v-6.536a.473.473,0,0,0-.473-.473h-7.721a.264.264,0,0,1-.264-.264v-.049a.473.473,0,0,0-.473-.473Z" transform="translate(-99.878 -146.349)" fill="#465266" stroke="#465266" stroke-width="0.2"/>
    </g>
  </g>
</svg>
