<svg xmlns="http://www.w3.org/2000/svg" width="16" height="15" viewBox="0 0 16 15">
  <path id="패스_320" data-name="패스 320" d="M332.915,343.535v-11.5a1.159,1.159,0,0,0-1.167-1.147h-3.231v-1.2h-.778v1.2h-5.6v-1.2h-.778v1.2h-3.275a1.159,1.159,0,0,0-1.167,1.147v11.5a1.159,1.159,0,0,0,1.167,1.147h13.666A1.159,1.159,0,0,0,332.915,343.535Zm-14.833-11.887h3.275v1.584h.778v-1.584h5.6v1.584h.778v-1.584h3.231a.386.386,0,0,1,.389.383v2.481H317.693V332.03A.386.386,0,0,1,318.082,331.648Zm0,12.269a.386.386,0,0,1-.389-.382v-8.259h14.444v8.259a.386.386,0,0,1-.389.382Z" transform="translate(-316.915 -329.682)" fill="#a7915f"/>
</svg>
