<svg xmlns="http://www.w3.org/2000/svg" width="26.188" height="31.628" viewBox="0 0 26.188 31.628">
  <g id="그룹_2878" data-name="그룹 2878" transform="translate(-153.5 -327.375)">
    <path id="패스_390" data-name="패스 390" d="M175.659,355.363H153.974a.474.474,0,0,1-.474-.474v-27.04a.474.474,0,0,1,.474-.474h21.685a.474.474,0,0,1,.474.474v27.04A.474.474,0,0,1,175.659,355.363Zm-21.211-.947h20.738V328.322H154.447Z" fill="#465266"/>
    <path id="패스_391" data-name="패스 391" d="M212.856,332.809a.474.474,0,0,1-.334-.138l-4.516-4.487a.474.474,0,0,1,.334-.81h4.516a.474.474,0,0,1,.474.474v4.487a.474.474,0,0,1-.474.474Zm-3.367-4.487,2.894,2.875v-2.875Z" transform="translate(-37.197)" fill="#465266"/>
    <path id="패스_392" data-name="패스 392" d="M164.318,350.471a.475.475,0,0,1-.335-.139l-1.274-1.274a.474.474,0,0,1,.67-.67l.92.92,2-2.238a.474.474,0,1,1,.706.632l-2.335,2.612a.475.475,0,0,1-.34.158Z" transform="translate(-6.206 -13.367)" fill="#465266"/>
    <path id="패스_393" data-name="패스 393" d="M164.318,370.476a.475.475,0,0,1-.335-.139l-1.274-1.274a.474.474,0,0,1,.67-.67l.92.92,2-2.239a.474.474,0,0,1,.706.632l-2.335,2.612a.475.475,0,0,1-.34.158Z" transform="translate(-6.206 -27.055)" fill="#465266"/>
    <path id="패스_394" data-name="패스 394" d="M164.318,390.481a.474.474,0,0,1-.335-.139l-1.274-1.274a.474.474,0,1,1,.67-.67l.92.92,2-2.239a.474.474,0,0,1,.706.632l-2.335,2.612a.474.474,0,0,1-.34.158Z" transform="translate(-6.206 -40.741)" fill="#465266"/>
    <path id="패스_395" data-name="패스 395" d="M191.277,351.994h-8.053a.474.474,0,1,1,0-.947h8.053a.474.474,0,0,1,0,.947Z" transform="translate(-20.013 -16.196)" fill="#465266"/>
    <path id="패스_396" data-name="패스 396" d="M191.277,373.947h-8.053a.474.474,0,1,1,0-.947h8.053a.474.474,0,0,1,0,.947Z" transform="translate(-20.013 -31.217)" fill="#465266"/>
    <path id="패스_397" data-name="패스 397" d="M191.277,395.9h-8.053a.474.474,0,0,1,0-.947h8.053a.474.474,0,0,1,0,.947Z" transform="translate(-20.013 -46.237)" fill="#465266"/>
    <g id="그룹_2876" data-name="그룹 2876" transform="translate(165.754 345.069)">
      <ellipse id="타원_28" data-name="타원 28" cx="6.408" cy="6.408" rx="6.408" ry="6.408" transform="translate(0.559 0.559)" fill="#fff"/>
      <path id="패스_398" data-name="패스 398" d="M206.025,404.093a6.967,6.967,0,1,1,6.967-6.968A6.975,6.975,0,0,1,206.025,404.093Zm0-12.816a5.849,5.849,0,1,0,5.848,5.849A5.855,5.855,0,0,0,206.025,391.277Z" transform="translate(-199.057 -390.158)" fill="#976f12"/>
    </g>
    <g id="그룹_2877" data-name="그룹 2877" transform="translate(172.162 347.806)">
      <path id="패스_399" data-name="패스 399" d="M216.8,402.289a.559.559,0,0,1-.559-.559v-3.67a.559.559,0,0,1,1.119,0v2.479l1.292-1.073a.559.559,0,1,1,.715.86l-2.209,1.835A.56.56,0,0,1,216.8,402.289Z" transform="translate(-216.242 -397.5)" fill="#976f12"/>
    </g>
  </g>
</svg>
