<svg xmlns="http://www.w3.org/2000/svg" width="13.841" height="17" viewBox="0 0 13.841 17">
  <g id="iconfinder_basket_1814090" transform="translate(-12.5 -8)">
    <g id="Icon-Trash" transform="translate(12.5 8)">
      <path id="Fill-6" d="M-207.5-205.1h1.065v8.518H-207.5Z" transform="translate(211.759 210.388)" fill="#b8b8b8"/>
      <path id="Fill-7" d="M-201.5-205.1h1.065v8.518H-201.5Z" transform="translate(207.888 210.388)" fill="#b8b8b8"/>
      <path id="Fill-8" d="M-195.5-205.1h1.065v8.518H-195.5Z" transform="translate(204.018 210.388)" fill="#b8b8b8"/>
      <path id="Fill-9" d="M-219.5-214.1h13.841v1.065H-219.5Z" transform="translate(219.5 216.194)" fill="#b8b8b8"/>
      <path id="Fill-10" d="M-202.147-217.374h-.994v-1.065a.561.561,0,0,0-.568-.568h-2.129a.561.561,0,0,0-.568.568v1.065h-.994v-1.065A1.575,1.575,0,0,1-205.838-220h2.129a1.575,1.575,0,0,1,1.562,1.562v1.065" transform="translate(211.694 220)" fill="#b8b8b8"/>
      <path id="Fill-11" d="M-207.45-198.291h-6.388a1.723,1.723,0,0,1-1.668-1.562l-.994-12.777,1.065-.071.994,12.777a.643.643,0,0,0,.6.568h6.388a.617.617,0,0,0,.6-.568l.994-12.777,1.065.071-.994,12.777a1.7,1.7,0,0,1-1.668,1.562" transform="translate(217.565 215.291)" fill="#b8b8b8"/>
    </g>
  </g>
</svg>
