<svg xmlns="http://www.w3.org/2000/svg" width="23.381" height="31.45" viewBox="0 0 23.381 31.45">
  <g id="그룹_2666" data-name="그룹 2666" transform="translate(-1117.432 -6712.562)">
    <path id="패스_163" data-name="패스 163" d="M1139.351,6744.012h-20.458a1.463,1.463,0,0,1-1.461-1.461v-28.527a1.463,1.463,0,0,1,1.461-1.461h20.458a1.463,1.463,0,0,1,1.461,1.461v28.527A1.463,1.463,0,0,1,1139.351,6744.012Zm-20.458-30.687a.7.7,0,0,0-.7.7v28.527a.7.7,0,0,0,.7.7h20.458a.7.7,0,0,0,.7-.7v-28.527a.7.7,0,0,0-.7-.7Z" fill="#465266"/>
    <path id="패스_164" data-name="패스 164" d="M1186.571,6792.085h-13.577a1.463,1.463,0,0,1-1.461-1.461v-3.9a1.463,1.463,0,0,1,1.461-1.461h13.577a1.463,1.463,0,0,1,1.461,1.461v3.9A1.463,1.463,0,0,1,1186.571,6792.085Zm-13.577-6.061a.7.7,0,0,0-.7.7v3.9a.7.7,0,0,0,.7.7h13.577a.7.7,0,0,0,.7-.7v-3.9a.7.7,0,0,0-.7-.7Z" transform="translate(-50.663 -68.081)" fill="#465266"/>
    <path id="패스_165" data-name="패스 165" d="M1218.913,6941.141a.381.381,0,0,1-.381-.381v-5.617a.381.381,0,1,1,.762,0v5.617A.381.381,0,0,1,1218.913,6941.141Z" transform="translate(-94.677 -208.082)" fill="#976f12"/>
    <path id="패스_166" data-name="패스 166" d="M1180.331,6979.724h-5.616a.381.381,0,0,1,0-.763h5.616a.381.381,0,0,1,0,.763Z" transform="translate(-53.286 -249.473)" fill="#976f12"/>
    <path id="패스_167" data-name="패스 167" d="M1334.03,6979.724h-5.616a.381.381,0,0,1,0-.763h5.616a.381.381,0,0,1,0,.763Z" transform="translate(-197.22 -249.473)" fill="#976f12"/>
    <path id="패스_168" data-name="패스 168" d="M1187.613,7067.595a.382.382,0,0,1-.269-.651l3.977-3.971a.381.381,0,1,1,.539.539l-3.977,3.972A.38.38,0,0,1,1187.613,7067.595Z" transform="translate(-65.365 -328.043)" fill="#976f12"/>
    <path id="패스_169" data-name="패스 169" d="M1191.591,7067.593a.382.382,0,0,1-.269-.111l-3.977-3.972a.381.381,0,1,1,.539-.539l3.977,3.971a.381.381,0,0,1-.269.651Z" transform="translate(-65.365 -328.042)" fill="#976f12"/>
    <path id="패스_170" data-name="패스 170" d="M1334.03,7073.623h-5.616a.381.381,0,1,1,0-.762h5.616a.381.381,0,1,1,0,.762Z" transform="translate(-197.22 -337.407)" fill="#976f12"/>
    <path id="패스_171" data-name="패스 171" d="M1334.03,7116.123h-5.616a.381.381,0,1,1,0-.762h5.616a.381.381,0,1,1,0,.762Z" transform="translate(-197.22 -377.207)" fill="#976f12"/>
  </g>
</svg>
