<svg xmlns="http://www.w3.org/2000/svg" width="6.88" height="7" viewBox="0 0 6.88 7">
  <g id="그룹_2743" data-name="그룹 2743" transform="translate(270.297 572) rotate(180)">
    <path id="패스_327" data-name="패스 327" d="M14.967,8.755,18.227,5.5a.33.33,0,0,1,.465.465L15.7,8.953l2.9,2.9a.33.33,0,0,1,0,.465h0a.33.33,0,0,1-.467,0l0,0L14.967,9.151A.3.3,0,0,1,14.967,8.755Z" transform="translate(282.188 577.42) rotate(180)" fill="#5d5d5d"/>
    <path id="패스_328" data-name="패스 328" d="M14.967,8.755,18.227,5.5a.33.33,0,0,1,.465.465L15.7,8.953l2.9,2.9a.33.33,0,0,1,0,.465h0a.33.33,0,0,1-.467,0l0,0L14.967,9.151A.3.3,0,0,1,14.967,8.755Z" transform="translate(285.188 577.42) rotate(180)" fill="#5d5d5d"/>
  </g>
</svg>
